<svg width="184" height="32" viewBox="0 0 184 32" fill="none" xmlns="http://www.w3.org/2000/svg">
<g clip-path="url(#clip0_51_2065)">
<path d="M91.1239 9.49261V12.8418C89.1303 12.7614 86.8768 13.7397 86.8768 16.8645V24.0923H83.7754V9.75004H86.8768V12.1636C87.2365 11.3447 87.8334 10.6525 88.5905 10.1763C89.3476 9.70019 90.2301 9.46202 91.1239 9.49261Z" fill="black"/>
<path d="M57.0625 16.9457C57.0625 12.8193 54.1365 9.37756 49.862 9.37756C48.8607 9.34262 47.8628 9.51362 46.9301 9.87995C45.9975 10.2463 45.15 10.8001 44.4401 11.5073C43.7302 12.2144 43.1729 13.0597 42.803 13.9909C42.433 14.9221 42.258 15.9193 42.289 16.9208C42.289 21.225 45.3607 24.464 50.0929 24.464C51.318 24.5181 52.5367 24.2598 53.6344 23.7133C54.7322 23.1668 55.6729 22.3501 56.3682 21.3401L53.8195 19.8493C53.3935 20.4235 52.8336 20.8849 52.1887 21.1934C51.5437 21.5018 50.8331 21.648 50.1187 21.6192C47.825 21.6192 46.0156 20.4736 45.5329 18.2402H56.9475C57.0145 17.8118 57.0529 17.3793 57.0625 16.9457ZM45.5079 15.7124C45.6644 14.6936 46.1932 13.7691 46.992 13.1177C47.7908 12.4663 48.8028 12.1344 49.8323 12.1862C50.8339 12.1517 51.8119 12.4952 52.572 13.1485C53.3322 13.8017 53.8188 14.717 53.9353 15.7124H45.5079Z" fill="black"/>
<path d="M63.4014 6.09106L60.3064 7.00743V9.74843H57.6667V12.734H60.3064V19.6159C60.3064 23.3449 62.197 24.6651 66.9574 24.0883V21.3127C64.6058 21.4277 63.4014 21.4511 63.4014 19.6184V12.7365H66.9574V9.75084H63.4014V6.09106Z" fill="black"/>
<path d="M78.7967 17.4381C78.7967 20.361 77.1877 21.5653 75.1539 21.5653C73.2061 21.5653 71.9438 20.4181 71.9438 18.2394V9.74927H68.8456V18.5564C68.8456 22.2854 71.1401 24.464 74.3558 24.464C75.2256 24.5217 76.0951 24.3477 76.8758 23.9599C77.6564 23.5721 78.3204 22.9843 78.8 22.2564V24.0891H81.895V9.74927H78.8L78.7967 17.4381Z" fill="black"/>
<path d="M100.551 9.37998C99.6812 9.32169 98.8114 9.49534 98.0306 9.8832C97.2498 10.2711 96.586 10.8592 96.1069 11.5876V9.74924H93.0062V24.0899H96.1069V16.4067C96.1069 13.479 97.7095 12.2738 99.7441 12.2738C101.698 12.2738 102.962 13.4211 102.962 15.5998V24.0899H106.057V15.2884C106.06 11.5586 103.769 9.37998 100.551 9.37998Z" fill="black"/>
<path d="M42.0348 9.49261V12.8418C40.0412 12.7614 37.7877 13.7397 37.7877 16.8645V24.0923H34.6863V9.75004H37.7877V12.1636C38.1473 11.3447 38.7443 10.6525 39.5014 10.1763C40.2585 9.70019 41.141 9.46202 42.0348 9.49261Z" fill="black"/>
<path d="M178.21 9.38002C177.339 9.32248 176.469 9.4965 175.687 9.8844C174.906 10.2723 174.241 10.8602 173.76 11.5884V9.74769H170.664V24.0883H173.761V16.4051C173.761 13.4791 175.37 12.2731 177.402 12.2731C179.355 12.2731 180.62 13.4211 180.62 15.5998V24.0883H183.717V15.2868C183.714 11.5587 181.419 9.38002 178.21 9.38002ZM122.617 23.3956V25.909H114.276V17.5677H116.791V21.2685C117.76 20.9745 118.599 20.3597 119.17 19.5252C119.742 18.6907 120.013 17.6862 119.938 16.6774C119.863 15.6685 119.446 14.7153 118.757 13.9748C118.067 13.2343 117.147 12.7506 116.146 12.6034C115.145 12.4562 114.123 12.6543 113.25 13.1651C112.377 13.6758 111.704 14.4687 111.341 15.4133C110.979 16.3578 110.949 17.3976 111.256 18.3614C111.564 19.3252 112.19 20.1556 113.033 20.7158V24.0473C111.417 23.4757 110.044 22.371 109.139 20.915C108.235 19.459 107.853 17.7385 108.057 16.0367C108.261 14.3348 109.038 12.753 110.26 11.5517C111.483 10.3503 113.078 9.60097 114.783 9.42697C116.488 9.25297 118.202 9.66468 119.642 10.5943C121.082 11.524 122.162 12.9162 122.706 14.5418C123.249 16.1675 123.223 17.9296 122.631 19.5383C122.039 21.1469 120.918 22.5062 119.45 23.3924L122.617 23.3956ZM134.416 9.74769V17.4381C134.416 20.3594 132.815 21.5645 130.775 21.5645C128.826 21.5645 127.563 20.4165 127.563 18.2378V9.74769H124.469V18.5564C124.469 22.2854 126.763 24.4641 129.971 24.4641C130.841 24.5215 131.711 24.3474 132.491 23.9595C133.272 23.5715 133.936 22.9836 134.415 22.2556V24.0892H137.518V9.74769H134.416ZM153.452 16.9458C153.452 12.8194 150.524 9.37759 146.249 9.37759C145.248 9.34203 144.25 9.51263 143.317 9.87877C142.384 10.2449 141.537 10.7988 140.827 11.5061C140.117 12.2134 139.56 13.059 139.19 13.9904C138.821 14.9218 138.647 15.9193 138.679 16.9208C138.679 21.225 141.747 24.4641 146.482 24.4641C147.709 24.5172 148.928 24.2586 150.028 23.7122C151.127 23.1659 152.069 22.3497 152.767 21.3401L150.209 19.8493C149.783 20.4238 149.224 20.8855 148.578 21.194C147.933 21.5025 147.223 21.6485 146.508 21.6193C144.215 21.6193 142.405 20.4736 141.922 18.2403H153.337C153.404 17.8118 153.441 17.3793 153.447 16.9458H153.452ZM141.895 15.7124C142.052 14.694 142.581 13.7698 143.38 13.1186C144.178 12.4673 145.19 12.1351 146.219 12.1862C147.221 12.1512 148.199 12.4945 148.96 13.1478C149.72 13.8012 150.206 14.7168 150.322 15.7124H141.895ZM169.426 16.9458C169.426 12.8194 166.502 9.37759 162.225 9.37759C161.224 9.34166 160.225 9.51211 159.292 9.87831C158.359 10.2445 157.511 10.7986 156.801 11.5063C156.091 12.214 155.534 13.0602 155.164 13.9921C154.795 14.9241 154.621 15.9221 154.654 16.924C154.654 21.2283 157.72 24.4673 162.458 24.4673C163.684 24.5217 164.904 24.2636 166.003 23.7171C167.102 23.1707 168.044 22.3538 168.74 21.3433L166.189 19.8525C165.763 20.4262 165.203 20.8872 164.558 21.1956C163.913 21.504 163.203 21.6505 162.488 21.6225C160.192 21.6225 158.385 20.4768 157.903 18.2435H169.312C169.379 17.8139 169.416 17.3803 169.424 16.9458H169.426ZM157.872 15.7124C158.029 14.6929 158.559 13.7679 159.358 13.1165C160.158 12.465 161.171 12.1335 162.201 12.1862C163.203 12.1502 164.182 12.4932 164.943 13.1467C165.703 13.8003 166.189 14.7164 166.304 15.7124H157.872Z" fill="black"/>
<path d="M17.4956 20.2523H20.3573V21.5025H15.0531V16.1983H16.3041V18.8532L16.6203 18.7655C17.3149 18.5764 17.9265 18.1608 18.3581 17.5845C18.8042 16.9791 19.0403 16.2446 19.0307 15.4927C19.0225 14.8964 18.8559 14.3129 18.5479 13.8022C18.2399 13.2915 17.8015 12.8719 17.2779 12.5864C16.7542 12.301 16.164 12.16 15.5678 12.1779C14.9717 12.1959 14.3911 12.3721 13.8855 12.6884C13.3799 13.0048 12.9675 13.4499 12.6907 13.9782C12.4139 14.5065 12.2827 15.0989 12.3104 15.6947C12.3381 16.2905 12.5238 16.8682 12.8484 17.3685C13.173 17.8688 13.6249 18.2738 14.1576 18.5419V20.262C13.0154 19.9049 12.0392 19.1499 11.4064 18.1342C10.7736 17.1184 10.5262 15.9094 10.7092 14.7267C10.8922 13.544 11.4934 12.4663 12.4036 11.6893C13.3138 10.9123 14.4726 10.4877 15.6693 10.4926C16.9995 10.4813 18.2798 10.998 19.2294 11.9295C19.7652 12.4701 20.1718 13.125 20.4186 13.845C20.6653 14.5651 20.7459 15.3317 20.6543 16.0873C20.5627 16.843 20.3012 17.5681 19.8894 18.2083C19.4777 18.8485 18.9264 19.3872 18.2768 19.7841L17.4956 20.2523Z" fill="black"/>
<path d="M31.0769 13.3961L29.3689 15.545L28.6111 14.5956L30.1501 12.66C30.1528 12.6571 30.1547 12.6536 30.1555 12.6498C30.1564 12.6459 30.1562 12.6419 30.155 12.6382C30.1543 12.6343 30.1526 12.6305 30.1501 12.6274C30.1475 12.6243 30.1442 12.6219 30.1405 12.6205L27.9835 11.5859L27.4598 11.3349L26.3648 10.8095L25.8419 10.5585L24.2393 9.7894C24.0751 9.71105 23.9308 9.59662 23.8172 9.45466C23.7035 9.3127 23.6234 9.14688 23.5828 8.96959L23.207 7.33319H24.4219L24.7364 8.70088C24.7374 8.70472 24.7392 8.7083 24.7417 8.71137C24.7442 8.71443 24.7473 8.7169 24.7509 8.71858L26.1114 9.37105L26.6352 9.62207L27.7301 10.1474L28.253 10.3984L30.6521 11.5489C30.8166 11.6271 30.9611 11.7415 31.0751 11.8835C31.189 12.0255 31.2694 12.1914 31.3101 12.3689C31.3508 12.5464 31.3508 12.7307 31.3101 12.9082C31.2695 13.0857 31.1892 13.2516 31.0753 13.3937L31.0769 13.3961Z" fill="black"/>
<path d="M28.2289 25.9443C28.1159 26.0868 27.9723 26.2019 27.8086 26.281C27.6449 26.3601 27.4654 26.4013 27.2836 26.4013L24.5989 26.4053L24.8692 25.2211H27.2828C27.2868 25.2214 27.2908 25.2207 27.2945 25.219C27.2982 25.2173 27.3013 25.2147 27.3037 25.2114C27.3064 25.2084 27.3082 25.2047 27.3091 25.2008C27.3099 25.1968 27.3098 25.1927 27.3086 25.1889L26.7864 22.9153L26.6561 22.3521L26.3841 21.1686L26.2538 20.6055L25.8427 18.8154C25.8018 18.6382 25.8014 18.4541 25.8417 18.2767C25.882 18.0994 25.9618 17.9334 26.0752 17.7913L27.1299 16.4646L27.887 17.4139L27.002 18.5282C26.9996 18.5314 26.998 18.535 26.9971 18.5389C26.9963 18.5428 26.9963 18.5468 26.9972 18.5507L27.348 20.0793L27.4783 20.6425L27.7502 21.826L27.8806 22.3891L28.463 24.9242C28.5031 25.1009 28.5028 25.2844 28.4623 25.461C28.4218 25.6376 28.342 25.8028 28.2289 25.9443Z" fill="black"/>
<path d="M22.4967 25.2242L22.2264 26.4085H20.7436C20.7396 26.4085 20.7357 26.4093 20.732 26.4109C20.7284 26.4126 20.7252 26.4151 20.7227 26.4182L19.7379 27.6563L19.3759 28.1109L18.6213 29.0611L18.2592 29.5156L16.6502 31.5414C16.5372 31.6839 16.3935 31.7989 16.2298 31.8781C16.0661 31.9572 15.8867 31.9983 15.7049 31.9984C15.5232 31.9986 15.3439 31.9579 15.1802 31.8792C15.0166 31.8005 14.8728 31.6858 14.7596 31.5438L13.1199 29.4939L14.2141 28.9677L15.6839 30.8052C15.6863 30.8085 15.6895 30.8111 15.6932 30.8128C15.6968 30.8144 15.7008 30.8152 15.7049 30.8149C15.709 30.8153 15.7131 30.8145 15.7168 30.8126C15.7205 30.8108 15.7236 30.808 15.7258 30.8045L17.1691 28.9895L17.5303 28.5349L18.2858 27.5847L18.647 27.1302L19.7991 25.682C19.9121 25.5396 20.0558 25.4245 20.2195 25.3453C20.3832 25.2662 20.5626 25.2251 20.7444 25.2251L22.4967 25.2242Z" fill="black"/>
<path d="M12.7258 27.1133L11.6325 27.6394L10.667 26.4327C10.6645 26.4296 10.6613 26.4271 10.6577 26.4254C10.654 26.4238 10.6501 26.423 10.6461 26.423H9.10544H8.52538H7.31134H6.73128H4.10129C3.91941 26.4237 3.73973 26.3832 3.57569 26.3046C3.41165 26.2261 3.26749 26.1114 3.15399 25.9693C3.04049 25.8272 2.96059 25.6612 2.92025 25.4839C2.87991 25.3065 2.88018 25.1223 2.92105 24.9451L3.4987 22.3979L4.59285 22.9249L4.07554 25.2066C4.07447 25.2104 4.07436 25.2145 4.0752 25.2184C4.07604 25.2223 4.07781 25.226 4.08037 25.2291C4.08272 25.2324 4.08589 25.235 4.08955 25.2367C4.09322 25.2384 4.09727 25.2391 4.10129 25.2387H6.46257H7.04263H8.25666H8.83753H10.6453C10.8268 25.2386 11.006 25.2794 11.1695 25.3581C11.333 25.4368 11.4767 25.5514 11.5898 25.6933L12.7258 27.1133Z" fill="black"/>
<path d="M5.52278 18.8355L5.12051 20.6183L4.02636 20.0914L4.3707 18.5732C4.37164 18.5694 4.37169 18.5653 4.37085 18.5614C4.37002 18.5575 4.36831 18.5539 4.36587 18.5507L3.44549 17.4002L3.08346 16.9465L2.32559 15.9988L1.96275 15.545L0.275663 13.4412C0.161449 13.2994 0.0807776 13.1337 0.0396899 12.9564C-0.0013978 12.779 -0.00183764 12.5947 0.0384033 12.4172C0.0786442 12.2397 0.158523 12.0736 0.27206 11.9313C0.385596 11.789 0.529848 11.6742 0.694016 11.5956L3.08346 10.4411L3.35378 11.6254L1.20891 12.6608C1.20526 12.6624 1.20204 12.6648 1.19952 12.6679C1.197 12.671 1.19526 12.6746 1.19443 12.6785C1.19313 12.6823 1.1929 12.6865 1.19375 12.6904C1.1946 12.6944 1.1965 12.698 1.19926 12.701L2.71579 14.5973L3.07863 15.051L3.83649 15.9988L4.19853 16.4525L5.28625 17.813C5.40012 17.9546 5.48054 18.1201 5.5215 18.2972C5.56245 18.4742 5.56289 18.6583 5.52278 18.8355Z" fill="black"/>
<path d="M12.2043 2.70074L11.4473 3.65008L9.23965 2.59132C9.23611 2.58927 9.23209 2.5882 9.22799 2.5882C9.2239 2.5882 9.21988 2.58927 9.21633 2.59132C9.21264 2.59285 9.20938 2.59526 9.20685 2.59835C9.20432 2.60144 9.20261 2.60511 9.20184 2.60902L8.65557 5.01616L8.52765 5.57933L8.25894 6.76279L8.13102 7.32596L7.7545 8.98489C7.7146 9.1623 7.63512 9.3284 7.522 9.47078C7.40887 9.61316 7.26504 9.72814 7.10123 9.80711L5.49218 10.5843L5.22186 9.40002L6.58473 8.74111C6.58846 8.73966 6.59174 8.73726 6.59428 8.73416C6.59682 8.73106 6.59851 8.72736 6.5992 8.72342L6.91618 7.32596L7.04411 6.76279L7.31282 5.57933L7.44074 5.01616L8.04574 2.34675C8.08541 2.1691 8.16475 2.00273 8.27782 1.86009C8.39089 1.71745 8.53476 1.60223 8.69866 1.52307C8.86256 1.4439 9.04225 1.40284 9.22427 1.40295C9.40629 1.40307 9.58592 1.44435 9.74972 1.52372L12.2043 2.70074Z" fill="black"/>
<path d="M23.8917 5.01537H22.6809L22.1234 2.58972C22.1226 2.58581 22.1209 2.58214 22.1184 2.57905C22.1158 2.57596 22.1126 2.57355 22.1089 2.57202C22.1053 2.56998 22.1013 2.5689 22.0972 2.5689C22.0931 2.5689 22.0891 2.56998 22.0856 2.57202L19.8771 3.63963L19.355 3.89225L18.2616 4.42002L17.7387 4.67264L16.1924 5.42004C16.0286 5.49925 15.849 5.5404 15.6671 5.5404C15.4851 5.5404 15.3055 5.49925 15.1417 5.42004L13.5914 4.67666L14.3492 3.72652L15.6542 4.35244C15.6578 4.35428 15.6618 4.35523 15.6658 4.35523C15.6699 4.35523 15.6739 4.35428 15.6775 4.35244L16.9816 3.72169L17.5046 3.46907L18.5979 2.9413L19.1201 2.68868L21.5698 1.50442C21.7335 1.42458 21.9131 1.3828 22.0952 1.38221C22.2772 1.38162 22.4571 1.42224 22.6212 1.50103C22.7854 1.57981 22.9296 1.69472 23.043 1.83714C23.1564 1.97957 23.2362 2.14581 23.2762 2.32342L23.8917 5.01537Z" fill="black"/>
<path d="M28.4363 7.06129L27.8603 9.58428L26.7653 9.05973L27.2818 6.79821C27.2827 6.79435 27.2826 6.79035 27.2817 6.78651C27.2808 6.78267 27.2791 6.77908 27.2766 6.776C27.2741 6.77291 27.271 6.77041 27.2675 6.76869C27.2639 6.76697 27.26 6.76606 27.2561 6.76603H20.7113C20.5294 6.76621 20.3498 6.72527 20.186 6.64628C20.0221 6.56729 19.8783 6.45228 19.7651 6.30986L18.6203 4.87379L19.7136 4.34521L20.6912 5.57131C20.6935 5.57463 20.6967 5.57732 20.7003 5.57915C20.704 5.58097 20.708 5.58187 20.7121 5.58177H27.2569C27.4389 5.58106 27.6188 5.62156 27.783 5.70022C27.9472 5.77888 28.0914 5.89367 28.2049 6.03599C28.3185 6.17831 28.3984 6.34447 28.4386 6.52203C28.4788 6.69959 28.4782 6.88395 28.4371 7.06129H28.4363Z" fill="black"/>
<path d="M31.2999 19.6047C31.2597 19.7821 31.1799 19.9481 31.0665 20.0903C30.9531 20.2326 30.809 20.3474 30.645 20.4261L28.2757 21.5669L28.0037 20.3842L30.1309 19.3593C30.1347 19.3579 30.138 19.3555 30.1406 19.3524C30.1431 19.3493 30.1448 19.3455 30.1454 19.3415C30.1467 19.3377 30.147 19.3336 30.1461 19.3296C30.1453 19.3257 30.1433 19.322 30.1406 19.319L28.612 17.4043L28.2499 16.9505L27.4929 16.0012L27.1309 15.5466L26.0584 14.2022C25.9447 14.0602 25.8646 13.8943 25.824 13.717C25.7835 13.5396 25.7836 13.3554 25.8243 13.1781L26.2362 11.3735L27.3312 11.8989L26.9788 13.4412C26.9778 13.445 26.9778 13.4491 26.9786 13.453C26.9795 13.4569 26.9812 13.4605 26.9836 13.4637L27.8863 14.5957L28.2483 15.0494L29.0054 15.9996L29.3674 16.4533L31.0634 18.5805C31.1775 18.7223 31.258 18.8881 31.299 19.0655C31.3399 19.2428 31.3403 19.4272 31.2999 19.6047Z" fill="black"/>
<path d="M26.1354 22.5975L24.7484 23.2661C24.7448 23.2677 24.7416 23.2701 24.7391 23.2732C24.7366 23.2763 24.7348 23.2799 24.7339 23.2837L24.421 24.6514L24.2915 25.2146L24.0211 26.3981L23.8924 26.9612L23.2778 29.6524C23.2379 29.83 23.1584 29.9963 23.0452 30.1388C22.932 30.2813 22.788 30.3965 22.624 30.4755C22.46 30.5545 22.2803 30.5954 22.0983 30.5951C21.9163 30.5948 21.7367 30.5533 21.573 30.4738L19.1441 29.304L19.8995 28.3539L22.087 29.4078C22.0906 29.4098 22.0946 29.4108 22.0987 29.4108C22.1028 29.4108 22.1068 29.4098 22.1103 29.4078C22.114 29.4063 22.1173 29.4039 22.1198 29.4008C22.1224 29.3977 22.1241 29.394 22.1248 29.3901L22.6784 26.9628L22.8079 26.3997L23.0782 25.2154L23.2077 24.6522L23.581 23.015C23.6212 22.8376 23.701 22.6715 23.8144 22.5293C23.9278 22.3871 24.0719 22.2723 24.2359 22.1936L25.8651 21.4092L26.1354 22.5975Z" fill="black"/>
<path d="M17.7598 27.3346L17.0043 28.2847L15.6769 27.6411C15.6694 27.638 15.661 27.638 15.6535 27.6411L14.3711 28.2589L13.8474 28.5107L12.7532 29.0369L12.2295 29.2887L9.75637 30.4802C9.59264 30.5598 9.41304 30.6012 9.23102 30.6015C9.049 30.6018 8.86928 30.5609 8.7053 30.4819C8.54132 30.4029 8.39732 30.2878 8.28412 30.1452C8.17091 30.0027 8.09142 29.8364 8.05158 29.6588L7.44257 26.991H8.65658L9.20607 29.3973C9.20677 29.4013 9.20846 29.405 9.211 29.4081C9.21353 29.4112 9.21683 29.4136 9.22056 29.4151C9.22413 29.417 9.22814 29.4181 9.23222 29.4181C9.2363 29.4181 9.24033 29.417 9.2439 29.4151L11.4716 28.3418L11.9954 28.09L13.0887 27.563L13.6125 27.3112L15.1411 26.5759C15.3049 26.4967 15.4845 26.4555 15.6664 26.4555C15.8484 26.4555 16.028 26.4967 16.1918 26.5759L17.7598 27.3346Z" fill="black"/>
<path d="M8.12541 24.6788H6.91138L6.58957 23.2822C6.58863 23.2783 6.58684 23.2747 6.58433 23.2717C6.58183 23.2686 6.57867 23.2661 6.57509 23.2645L5.23877 22.6208L4.71503 22.369L3.62811 21.8413L3.10437 21.5894L0.68516 20.4261C0.520931 20.3477 0.376567 20.2331 0.262873 20.091C0.149179 19.9489 0.0691004 19.7829 0.0286295 19.6055C-0.0118414 19.428 -0.0116559 19.2437 0.0291721 19.0664C0.0700001 18.889 0.150413 18.7232 0.264393 18.5813L1.96114 16.4509L2.719 17.3987L1.1904 19.3158C1.18778 19.3189 1.18597 19.3226 1.18513 19.3265C1.18428 19.3304 1.18444 19.3345 1.18557 19.3384C1.18634 19.3423 1.18806 19.346 1.19059 19.349C1.19311 19.3521 1.19637 19.3545 1.20006 19.3561L3.37227 20.402L3.89602 20.6538L4.99098 21.1807L5.51473 21.4326L7.09562 22.1936C7.25963 22.2723 7.40373 22.3871 7.51713 22.5294C7.63054 22.6716 7.71031 22.8376 7.7505 23.015L8.12541 24.6788Z" fill="black"/>
<path d="M4.05225 6.77486C4.04969 6.77795 4.04792 6.78161 4.04708 6.78553C4.04624 6.78945 4.04635 6.79352 4.04742 6.79739L4.57117 9.09189L4.7007 9.65506L4.97102 10.8393L5.10055 11.4025L5.50281 13.1724C5.54362 13.3497 5.54383 13.5339 5.50343 13.7112C5.46302 13.8886 5.38306 14.0545 5.2695 14.1966L4.19867 15.5386L3.44081 14.5908L4.34429 13.4581C4.34669 13.4549 4.34836 13.4512 4.34919 13.4473C4.35002 13.4434 4.35 13.4394 4.34912 13.4355L4.00559 11.9311L3.87606 11.3679L3.60574 10.1836L3.47621 9.62046L2.89212 7.06047C2.85098 6.88312 2.85049 6.69876 2.8907 6.5212C2.93091 6.34364 3.01076 6.17748 3.1243 6.03516C3.23783 5.89284 3.38208 5.77805 3.54627 5.69939C3.71045 5.62073 3.89031 5.58024 4.07237 5.58094H6.73293L6.46422 6.76441H4.07317C4.06908 6.76423 4.06502 6.76509 4.06136 6.76692C4.0577 6.76875 4.05457 6.77149 4.05225 6.77486Z" fill="black"/>
<path d="M18.2335 2.48918L17.1401 3.01695L15.6855 1.19309C15.6831 1.18987 15.68 1.18729 15.6763 1.18561C15.6727 1.18392 15.6686 1.18318 15.6646 1.18344C15.6606 1.1831 15.6566 1.18381 15.6529 1.1855C15.6492 1.18719 15.6461 1.18981 15.6437 1.19309L14.1867 3.02258L13.8247 3.47714L13.0676 4.42648L12.7056 4.88023L11.564 6.30987C11.4508 6.45229 11.307 6.5673 11.1431 6.64629C10.9793 6.72528 10.7997 6.76622 10.6178 6.76604H8.84064L9.10855 5.58258H10.617C10.6211 5.58255 10.6251 5.58159 10.6287 5.57978C10.6323 5.57797 10.6355 5.57535 10.638 5.57212L11.6122 4.35488L11.9743 3.90112L12.7321 2.95178L13.0942 2.49803L14.7193 0.455342C14.8323 0.312649 14.9761 0.19736 15.1399 0.118104C15.3038 0.0388491 15.4834 -0.00231934 15.6654 -0.00231934C15.8474 -0.00231934 16.0271 0.0388491 16.1909 0.118104C16.3548 0.19736 16.4986 0.312649 16.6116 0.455342L18.2335 2.48918Z" fill="black"/>
</g>
<defs>
<clipPath id="clip0_51_2065">
<rect width="183.715" height="32" fill="white"/>
</clipPath>
</defs>
</svg>
