<svg width="230" height="40" viewBox="0 0 230 40" fill="none" xmlns="http://www.w3.org/2000/svg">
<g clip-path="url(#clip0_51_2886)">
<path d="M113.905 11.8658V16.0523C111.413 15.9517 108.596 17.1746 108.596 21.0806V30.1154H104.719V12.1875H108.596V15.2045C109.046 14.1809 109.792 13.3156 110.738 12.7204C111.684 12.1252 112.788 11.8275 113.905 11.8658Z" fill="#8554DC"/>
<path d="M71.3282 21.1822C71.3282 16.0241 67.6706 11.7219 62.3276 11.7219C61.0758 11.6783 59.8285 11.892 58.6627 12.3499C57.4969 12.8078 56.4375 13.5002 55.5501 14.3841C54.6627 15.268 53.9662 16.3246 53.5037 17.4886C53.0412 18.6526 52.8226 19.8991 52.8613 21.151C52.8613 26.5312 56.7009 30.58 62.6162 30.58C64.1475 30.6476 65.6709 30.3247 67.0431 29.6416C68.4153 28.9585 69.5912 27.9377 70.4603 26.6751L67.2744 24.8116C66.7419 25.5293 66.0421 26.1061 65.2358 26.4917C64.4296 26.8773 63.5414 27.06 62.6484 27.024C59.7813 27.024 57.5195 25.592 56.9161 22.8003H71.1844C71.2681 22.2647 71.3162 21.7241 71.3282 21.1822ZM56.885 19.6405C57.0805 18.367 57.7415 17.2113 58.74 16.3971C59.7385 15.5829 61.0036 15.168 62.2904 15.2327C63.5424 15.1896 64.7649 15.619 65.7151 16.4356C66.6652 17.2521 67.2735 18.3962 67.4192 19.6405H56.885Z" fill="#8554DC"/>
<path d="M79.2518 7.61383L75.3831 8.75928V12.1855H72.0835V15.9175H75.3831V24.5199C75.3831 29.1811 77.7464 30.8314 83.6968 30.1104V26.6408C80.7573 26.7846 79.2518 26.8138 79.2518 24.5229V15.9206H83.6968V12.1885H79.2518V7.61383Z" fill="#8554DC"/>
<path d="M98.4961 21.7976C98.4961 25.4511 96.4848 26.9566 93.9425 26.9566C91.5078 26.9566 89.9299 25.5225 89.9299 22.7992V12.1865H86.0571V23.1954C86.0571 27.8567 88.9253 30.58 92.9449 30.58C94.0321 30.652 95.119 30.4345 96.0949 29.9498C97.0707 29.4651 97.9006 28.7303 98.5001 27.8205V30.1114H102.369V12.1865H98.5001L98.4961 21.7976Z" fill="#8554DC"/>
<path d="M125.689 11.725C124.602 11.6521 123.514 11.8692 122.538 12.354C121.562 12.8388 120.733 13.574 120.134 14.4845V12.1865H116.258V30.1124H120.134V20.5084C120.134 16.8488 122.137 15.3423 124.68 15.3423C127.122 15.3423 128.703 16.7764 128.703 19.4997V30.1124H132.572V19.1105C132.575 14.4483 129.711 11.725 125.689 11.725Z" fill="#8554DC"/>
<path d="M52.5436 11.8658V16.0523C50.0516 15.9517 47.2347 17.1746 47.2347 21.0806V30.1154H43.3579V12.1875H47.2347V15.2045C47.6842 14.1809 48.4304 13.3156 49.3768 12.7204C50.3232 12.1252 51.4263 11.8275 52.5436 11.8658Z" fill="#8554DC"/>
<path d="M222.762 11.725C221.674 11.6531 220.586 11.8706 219.609 12.3555C218.632 12.8403 217.801 13.5753 217.2 14.4855V12.1846H213.33V30.1104H217.201V20.5064C217.201 16.8488 219.212 15.3413 221.753 15.3413C224.194 15.3413 225.775 16.7764 225.775 19.4997V30.1104H229.646V19.1085C229.643 14.4483 226.774 11.725 222.762 11.725ZM153.271 29.2445V32.3862H142.845V21.9596H145.989V26.5856C147.199 26.2181 148.248 25.4496 148.963 24.4064C149.678 23.3633 150.016 22.1078 149.922 20.8467C149.828 19.5856 149.308 18.3941 148.446 17.4685C147.584 16.5428 146.433 15.9382 145.182 15.7543C143.931 15.5703 142.654 15.8179 141.563 16.4563C140.471 17.0947 139.63 18.0859 139.177 19.2666C138.724 20.4472 138.686 21.747 139.07 22.9518C139.455 24.1565 140.238 25.1945 141.291 25.8947V30.0591C139.271 29.3446 137.555 27.9637 136.424 26.1437C135.294 24.3238 134.817 22.1731 135.071 20.0458C135.326 17.9185 136.297 15.9412 137.825 14.4395C139.354 12.9378 141.347 12.0012 143.479 11.7837C145.61 11.5662 147.752 12.0808 149.552 13.2429C151.352 14.405 152.703 16.1452 153.382 18.1773C154.061 20.2093 154.028 22.412 153.289 24.4228C152.549 26.4336 151.147 28.1328 149.313 29.2405L153.271 29.2445ZM168.02 12.1846V21.7976C168.02 25.4492 166.019 26.9557 163.469 26.9557C161.033 26.9557 159.454 25.5206 159.454 22.7973V12.1846H155.586V23.1955C155.586 27.8567 158.454 30.58 162.464 30.58C163.551 30.6519 164.638 30.4342 165.614 29.9493C166.59 29.4644 167.42 28.7295 168.019 27.8195V30.1114H171.897V12.1846H168.02ZM191.815 21.1822C191.815 16.0242 188.155 11.722 182.812 11.722C181.56 11.6775 180.312 11.8908 179.146 12.3484C177.98 12.8061 176.921 13.4985 176.033 14.3826C175.146 15.2667 174.45 16.3237 173.988 17.488C173.526 18.6523 173.308 19.8991 173.348 21.151C173.348 26.5313 177.184 30.58 183.103 30.58C184.636 30.6465 186.161 30.3232 187.535 29.6403C188.909 28.9573 190.087 27.9371 190.959 26.6751L187.761 24.8116C187.229 25.5298 186.53 26.1068 185.723 26.4924C184.917 26.8781 184.028 27.0606 183.135 27.024C180.268 27.024 178.007 25.592 177.403 22.8003H191.671C191.755 22.2648 191.801 21.7241 191.809 21.1822H191.815ZM177.369 19.6405C177.565 18.3674 178.227 17.2123 179.225 16.3982C180.223 15.5841 181.488 15.1689 182.774 15.2327C184.027 15.1889 185.249 15.618 186.2 16.4347C187.15 17.2514 187.758 18.3959 187.903 19.6405H177.369ZM211.783 21.1822C211.783 16.0242 208.128 11.722 202.782 11.722C201.53 11.677 200.281 11.8901 199.115 12.3479C197.948 12.8056 196.888 13.4983 196.001 14.3829C195.113 15.2675 194.417 16.3252 193.956 17.4902C193.494 18.6551 193.277 19.9026 193.318 21.155C193.318 26.5353 197.15 30.5841 203.072 30.5841C204.605 30.6521 206.13 30.3294 207.504 29.6464C208.877 28.9633 210.055 27.9422 210.926 26.6791L207.737 24.8156C207.204 25.5327 206.504 26.1089 205.698 26.4944C204.892 26.88 204.004 27.0631 203.111 27.0281C200.241 27.0281 197.982 25.596 197.378 22.8043H211.641C211.723 22.2673 211.77 21.7254 211.78 21.1822H211.783ZM197.34 19.6405C197.536 18.3661 198.198 17.2098 199.198 16.3956C200.198 15.5813 201.464 15.1669 202.752 15.2327C204.004 15.1877 205.228 15.6165 206.178 16.4334C207.129 17.2503 207.737 18.3954 207.881 19.6405H197.34Z" fill="#8554DC"/>
<path d="M21.8695 25.3154H25.4466V26.8782H18.8164V20.2479H20.3801V23.5666L20.7754 23.4569C21.6437 23.2205 22.4082 22.7009 22.9476 21.9806C23.5052 21.2239 23.8004 20.3058 23.7883 19.3659C23.7782 18.6205 23.5699 17.8911 23.1849 17.2527C22.7998 16.6143 22.2519 16.0898 21.5973 15.7331C20.9427 15.3763 20.205 15.2 19.4598 15.2224C18.7146 15.2448 17.9888 15.4651 17.3568 15.8605C16.7248 16.256 16.2094 16.8124 15.8634 17.4728C15.5174 18.1332 15.3533 18.8737 15.388 19.6184C15.4226 20.3631 15.6547 21.0852 16.0605 21.7106C16.4662 22.336 17.0311 22.8423 17.6971 23.1774V25.3275C16.2693 24.8812 15.049 23.9374 14.258 22.6677C13.467 21.398 13.1577 19.8867 13.3865 18.4084C13.6152 16.9301 14.3668 15.5829 15.5045 14.6116C16.6423 13.6404 18.0908 13.1097 19.5867 13.1158C21.2493 13.1016 22.8497 13.7475 24.0367 14.9119C24.7065 15.5876 25.2147 16.4062 25.5232 17.3063C25.8317 18.2064 25.9324 19.1646 25.8179 20.1092C25.7033 21.0537 25.3764 21.9601 24.8618 22.7604C24.3471 23.5606 23.658 24.234 22.846 24.7301L21.8695 25.3154Z" fill="#8554DC"/>
<path d="M38.8462 16.7452L36.7112 19.4313L35.7638 18.2446L37.6876 15.825C37.691 15.8215 37.6934 15.817 37.6944 15.8123C37.6955 15.8075 37.6952 15.8025 37.6937 15.7979C37.6929 15.7929 37.6908 15.7882 37.6876 15.7843C37.6844 15.7804 37.6803 15.7775 37.6756 15.7757L34.9794 14.4825L34.3247 14.1687L32.956 13.512L32.3023 13.1982L30.2991 12.2368C30.0939 12.1389 29.9135 11.9959 29.7714 11.8184C29.6293 11.6409 29.5292 11.4337 29.4785 11.2121L29.0088 9.16656H30.5273L30.9205 10.8762C30.9217 10.881 30.924 10.8855 30.9271 10.8893C30.9302 10.8931 30.9342 10.8962 30.9387 10.8983L32.6393 11.7139L33.2939 12.0277L34.6626 12.6844L35.3163 12.9981L38.3152 14.4362C38.5207 14.5339 38.7014 14.6769 38.8438 14.8544C38.9863 15.0319 39.0867 15.2394 39.1376 15.4612C39.1885 15.683 39.1885 15.9135 39.1377 16.1353C39.0868 16.3572 38.9865 16.5646 38.8441 16.7422L38.8462 16.7452Z" fill="#8554DC"/>
<path d="M35.2861 32.4304C35.1449 32.6085 34.9653 32.7523 34.7607 32.8512C34.5561 32.9502 34.3317 33.0016 34.1044 33.0016L30.7485 33.0066L31.0864 31.5263H34.1034C34.1084 31.5267 34.1135 31.5259 34.1181 31.5237C34.1227 31.5216 34.1266 31.5184 34.1296 31.5143C34.1329 31.5105 34.1352 31.5059 34.1363 31.501C34.1374 31.496 34.1371 31.4909 34.1356 31.4861L33.4829 28.6441L33.32 27.9401L32.9801 26.4608L32.8172 25.7569L32.3033 23.5193C32.2522 23.2978 32.2517 23.0676 32.3021 22.8459C32.3524 22.6242 32.4522 22.4168 32.5939 22.2391L33.9123 20.5807L34.8587 21.7674L33.7524 23.1603C33.7494 23.1642 33.7474 23.1688 33.7464 23.1737C33.7453 23.1785 33.7453 23.1836 33.7464 23.1884L34.1849 25.0992L34.3478 25.8031L34.6877 27.2824L34.8506 27.9864L35.5787 31.1552C35.6288 31.3761 35.6285 31.6054 35.5778 31.8262C35.5272 32.0469 35.4275 32.2534 35.2861 32.4304Z" fill="#8554DC"/>
<path d="M28.1208 31.5303L27.7829 33.0107H25.9295C25.9245 33.0106 25.9196 33.0116 25.915 33.0137C25.9105 33.0158 25.9065 33.0189 25.9033 33.0227L24.6724 34.5704L24.2199 35.1386L23.2766 36.3264L22.824 36.8946L20.8127 39.4268C20.6715 39.6049 20.4919 39.7487 20.2873 39.8476C20.0827 39.9465 19.8583 39.998 19.6311 39.998C19.404 39.9983 19.1799 39.9474 18.9753 39.849C18.7707 39.7506 18.5909 39.6073 18.4494 39.4298L16.3999 36.8674L17.7676 36.2097L19.6049 38.5066C19.6079 38.5106 19.6119 38.5139 19.6165 38.516C19.621 38.5181 19.626 38.519 19.6311 38.5187C19.6362 38.5191 19.6414 38.5181 19.646 38.5158C19.6506 38.5135 19.6545 38.51 19.6572 38.5056L21.4614 36.2369L21.9129 35.6687L22.8572 34.481L23.3088 33.9128L24.7489 32.1026C24.8901 31.9245 25.0697 31.7806 25.2743 31.6817C25.4789 31.5828 25.7032 31.5314 25.9305 31.5314L28.1208 31.5303Z" fill="#8554DC"/>
<path d="M15.9073 33.8916L14.5406 34.5493L13.3338 33.0408C13.3306 33.037 13.3267 33.0339 13.3221 33.0318C13.3176 33.0297 13.3127 33.0287 13.3077 33.0288H11.3818H10.6568H9.13923H8.41415H5.12666C4.8993 33.0296 4.67471 32.979 4.46966 32.8808C4.26461 32.7826 4.08441 32.6393 3.94254 32.4616C3.80066 32.284 3.70078 32.0765 3.65036 31.8548C3.59994 31.6331 3.60028 31.4029 3.65136 31.1814L4.37342 27.9974L5.74111 28.6562L5.09447 31.5082C5.09314 31.513 5.093 31.5181 5.09405 31.523C5.0951 31.5279 5.09731 31.5325 5.10051 31.5364C5.10345 31.5405 5.1074 31.5437 5.11199 31.5458C5.11657 31.548 5.12163 31.5488 5.12666 31.5484H8.07826H8.80334H10.3209H11.047H13.3067C13.5335 31.5483 13.7575 31.5993 13.9619 31.6976C14.1663 31.796 14.3459 31.9392 14.4873 32.1166L15.9073 33.8916Z" fill="#8554DC"/>
<path d="M6.90353 23.5444L6.4007 25.7729L5.03301 25.1142L5.46343 23.2166C5.46461 23.2117 5.46467 23.2067 5.46363 23.2018C5.46258 23.1969 5.46045 23.1924 5.4574 23.1884L4.30693 21.7503L3.85438 21.1831L2.90705 19.9985L2.4535 19.4313L0.344639 16.8015C0.201872 16.6243 0.101033 16.4171 0.0496734 16.1955C-0.00168622 15.9738 -0.00223601 15.7434 0.0480652 15.5215C0.0983663 15.2996 0.198215 15.092 0.340136 14.9141C0.482056 14.7363 0.662372 14.5928 0.867581 14.4945L3.85438 13.0514L4.19228 14.5317L1.5112 15.826C1.50664 15.828 1.50261 15.831 1.49947 15.8349C1.49632 15.8387 1.49413 15.8433 1.4931 15.8481C1.49148 15.8529 1.49118 15.8581 1.49224 15.863C1.49331 15.868 1.49569 15.8726 1.49913 15.8763L3.3948 18.2466L3.84835 18.8138L4.79568 19.9985L5.24822 20.5657L6.60787 22.2662C6.75022 22.4433 6.85074 22.6502 6.90193 22.8715C6.95313 23.0928 6.95368 23.3228 6.90353 23.5444Z" fill="#8554DC"/>
<path d="M15.2554 3.37595L14.3091 4.56263L11.5496 3.23918C11.5451 3.23662 11.5401 3.23528 11.535 3.23528C11.5299 3.23528 11.5249 3.23662 11.5204 3.23918C11.5158 3.24109 11.5117 3.24411 11.5086 3.24797C11.5054 3.25183 11.5033 3.25641 11.5023 3.26131L10.8195 6.27023L10.6596 6.97419L10.3237 8.45352L10.1638 9.15748L9.69315 11.2311C9.64327 11.4529 9.54391 11.6605 9.40251 11.8385C9.26111 12.0165 9.08131 12.1602 8.87656 12.2589L6.86524 13.2304L6.52734 11.7501L8.23093 10.9264C8.23559 10.9246 8.23969 10.9216 8.24287 10.9177C8.24604 10.9139 8.24815 10.9092 8.24902 10.9043L8.64524 9.15748L8.80516 8.45352L9.14104 6.97419L9.30094 6.27023L10.0572 2.93347C10.1068 2.71141 10.206 2.50345 10.3473 2.32514C10.4886 2.14684 10.6685 2.00282 10.8733 1.90387C11.0782 1.80491 11.3028 1.75358 11.5304 1.75372C11.7579 1.75386 11.9824 1.80547 12.1872 1.90468L15.2554 3.37595Z" fill="#8554DC"/>
<path d="M29.8647 6.26924H28.3512L27.6543 3.23719C27.6533 3.23229 27.6512 3.2277 27.648 3.22384C27.6448 3.21998 27.6408 3.21697 27.6362 3.21506C27.6317 3.2125 27.6267 3.21115 27.6216 3.21115C27.6165 3.21115 27.6114 3.2125 27.607 3.21506L24.8465 4.54957L24.1938 4.86534L22.8271 5.52506L22.1734 5.84083L20.2405 6.77509C20.0358 6.8741 19.8113 6.92553 19.5839 6.92553C19.3564 6.92553 19.1319 6.8741 18.9272 6.77509L16.9893 5.84586L17.9366 4.65818L19.5678 5.44058C19.5723 5.44288 19.5773 5.44407 19.5823 5.44407C19.5874 5.44407 19.5924 5.44288 19.5969 5.44058L21.2271 4.65215L21.8808 4.33637L23.2475 3.67666L23.9001 3.36088L26.9623 1.88056C27.1669 1.78075 27.3914 1.72853 27.619 1.72779C27.8466 1.72706 28.0714 1.77783 28.2766 1.87631C28.4817 1.97479 28.662 2.11843 28.8038 2.29646C28.9456 2.47449 29.0453 2.68229 29.0953 2.90431L29.8647 6.26924Z" fill="#8554DC"/>
<path d="M35.5454 8.82661L34.8253 11.9804L33.4566 11.3247L34.1023 8.49776C34.1033 8.49294 34.1033 8.48794 34.1022 8.48314C34.101 8.47833 34.0989 8.47385 34.0958 8.46999C34.0927 8.46614 34.0888 8.46302 34.0844 8.46086C34.0799 8.45871 34.0751 8.45757 34.0701 8.45753H25.8891C25.6617 8.45776 25.4373 8.40659 25.2325 8.30785C25.0277 8.20911 24.8479 8.06535 24.7064 7.88733L23.2754 6.09223L24.6421 5.43152L25.864 6.96413C25.8669 6.96828 25.8708 6.97165 25.8754 6.97393C25.88 6.97621 25.885 6.97733 25.8901 6.97721H34.0711C34.2987 6.97633 34.5235 7.02695 34.7287 7.12527C34.934 7.2236 35.1143 7.36708 35.2562 7.54498C35.3981 7.72288 35.498 7.93058 35.5482 8.15253C35.5985 8.37449 35.5978 8.60493 35.5464 8.82661H35.5454Z" fill="#8554DC"/>
<path d="M39.125 24.5059C39.0747 24.7277 38.975 24.9352 38.8332 25.113C38.6915 25.2908 38.5113 25.4343 38.3063 25.5326L35.3447 26.9587L35.0047 25.4803L37.6637 24.1991C37.6684 24.1974 37.6726 24.1944 37.6758 24.1905C37.6789 24.1866 37.6811 24.182 37.6818 24.177C37.6835 24.1722 37.6838 24.1671 37.6827 24.1621C37.6816 24.1572 37.6792 24.1526 37.6758 24.1489L35.765 21.7554L35.3125 21.1882L34.3662 20.0015L33.9136 19.4333L32.5731 17.7529C32.431 17.5753 32.3308 17.368 32.2801 17.1463C32.2294 16.9246 32.2295 16.6943 32.2804 16.4727L32.7953 14.217L34.164 14.8737L33.7235 16.8015C33.7224 16.8064 33.7223 16.8114 33.7234 16.8163C33.7244 16.8212 33.7266 16.8257 33.7296 16.8297L34.8579 18.2446L35.3105 18.8118L36.2568 19.9995L36.7093 20.5667L38.8293 23.2257C38.9719 23.4029 39.0726 23.6102 39.1238 23.8319C39.175 24.0536 39.1754 24.284 39.125 24.5059Z" fill="#8554DC"/>
<path d="M32.6693 28.2468L30.9356 29.0826C30.9311 29.0846 30.9271 29.0876 30.9239 29.0915C30.9208 29.0953 30.9186 29.0998 30.9175 29.1047L30.5262 30.8143L30.3644 31.5183L30.0264 32.9976L29.8655 33.7015L29.0972 37.0655C29.0474 37.2875 28.948 37.4953 28.8065 37.6735C28.665 37.8517 28.4851 37.9956 28.2801 38.0943C28.0751 38.1931 27.8505 38.2442 27.6229 38.2438C27.3954 38.2435 27.1709 38.1916 26.9662 38.0922L23.9302 36.63L24.8745 35.4423L27.6088 36.7597C27.6133 36.7622 27.6183 36.7635 27.6234 36.7635C27.6285 36.7635 27.6335 36.7622 27.638 36.7597C27.6426 36.7578 27.6467 36.7548 27.6498 36.751C27.653 36.7471 27.6551 36.7425 27.6561 36.7376L28.348 33.7035L28.5099 32.9996L28.8478 31.5193L29.0097 30.8153L29.4763 28.7688C29.5266 28.547 29.6263 28.3394 29.7681 28.1616C29.9098 27.9838 30.0899 27.8404 30.295 27.742L32.3314 26.7615L32.6693 28.2468Z" fill="#8554DC"/>
<path d="M22.1998 34.1682L21.2554 35.3559L19.5961 34.5514C19.5868 34.5475 19.5763 34.5475 19.5669 34.5514L17.9639 35.3237L17.3093 35.6385L15.9416 36.2962L15.2869 36.6109L12.1955 38.1003C11.9908 38.1997 11.7663 38.2516 11.5388 38.2519C11.3113 38.2523 11.0866 38.2012 10.8816 38.1024C10.6767 38.0036 10.4967 37.8598 10.3552 37.6816C10.2137 37.5034 10.1143 37.2956 10.0645 37.0736L9.30322 33.7388H10.8207L11.5076 36.7467C11.5085 36.7516 11.5106 36.7563 11.5138 36.7601C11.5169 36.764 11.5211 36.767 11.5257 36.7689C11.5302 36.7713 11.5352 36.7726 11.5403 36.7726C11.5454 36.7726 11.5504 36.7713 11.5549 36.7689L14.3395 35.4273L14.9942 35.1125L16.3609 34.4538L17.0156 34.1391L18.9264 33.2199C19.1311 33.1209 19.3556 33.0695 19.583 33.0695C19.8105 33.0695 20.035 33.1209 20.2397 33.2199L22.1998 34.1682Z" fill="#8554DC"/>
<path d="M10.1568 30.8485H8.63926L8.23699 29.1027C8.23582 29.0979 8.23358 29.0934 8.23045 29.0896C8.22732 29.0858 8.22337 29.0827 8.21889 29.0806L6.5485 28.276L5.89382 27.9613L4.53517 27.3016L3.88049 26.9868L0.85648 25.5326C0.651194 25.4346 0.470739 25.2914 0.328622 25.1138C0.186505 24.9361 0.086406 24.7286 0.0358174 24.5068C-0.0147713 24.285 -0.0145394 24.0547 0.0364956 23.833C0.0875307 23.6113 0.188047 23.404 0.330522 23.2266L2.45145 20.5637L3.39878 21.7483L1.48803 24.1448C1.48476 24.1486 1.48249 24.1532 1.48144 24.1581C1.48039 24.163 1.48058 24.1682 1.482 24.173C1.48295 24.1779 1.4851 24.1824 1.48826 24.1863C1.49142 24.1902 1.49549 24.1932 1.5001 24.1951L4.21537 25.5025L4.87006 25.8172L6.23876 26.4759L6.89344 26.7907L8.86955 27.742C9.07457 27.8404 9.25469 27.9839 9.39644 28.1617C9.5382 28.3395 9.63792 28.547 9.68816 28.7688L10.1568 30.8485Z" fill="#8554DC"/>
<path d="M5.06536 8.46861C5.06216 8.47247 5.05995 8.47704 5.0589 8.48195C5.05785 8.48685 5.05799 8.49194 5.05932 8.49677L5.714 11.3649L5.87592 12.0688L6.21382 13.5492L6.37573 14.2531L6.87856 16.4656C6.92957 16.6872 6.92983 16.9174 6.87933 17.1391C6.82882 17.3608 6.72887 17.5682 6.58692 17.7458L5.24839 19.4232L4.30106 18.2386L5.43041 16.8226C5.43341 16.8186 5.43549 16.814 5.43653 16.8092C5.43758 16.8043 5.43755 16.7993 5.43644 16.7944L5.00703 14.9139L4.84512 14.2099L4.50722 12.7296L4.34531 12.0256L3.6152 8.82562C3.56377 8.60393 3.56316 8.37349 3.61342 8.15154C3.66368 7.92959 3.7635 7.72188 3.90542 7.54398C4.04733 7.36608 4.22765 7.2226 4.43288 7.12427C4.63811 7.02595 4.86293 6.97533 5.0905 6.97621H8.41621L8.08032 8.45554H5.09151C5.0864 8.45532 5.08132 8.4564 5.07675 8.45868C5.07217 8.46097 5.06825 8.46439 5.06536 8.46861Z" fill="#8554DC"/>
<path d="M22.7918 3.11151L21.4251 3.77122L19.6069 1.4914C19.6039 1.48736 19.5999 1.48415 19.5954 1.48204C19.5908 1.47993 19.5858 1.479 19.5808 1.47933C19.5757 1.4789 19.5707 1.47979 19.5661 1.48191C19.5615 1.48402 19.5576 1.48729 19.5546 1.4914L17.7334 3.77826L17.2808 4.34646L16.3345 5.53313L15.882 6.10032L14.4549 7.88737C14.3135 8.0654 14.1337 8.20915 13.9289 8.30789C13.7241 8.40663 13.4996 8.4578 13.2723 8.45758H11.0508L11.3857 6.97826H13.2713C13.2763 6.97822 13.2813 6.97702 13.2859 6.97476C13.2904 6.97249 13.2944 6.96922 13.2974 6.96519L14.5153 5.44363L14.9678 4.87644L15.9151 3.68976L16.3677 3.12257L18.3991 0.569208C18.5403 0.390842 18.7201 0.24673 18.9249 0.147661C19.1297 0.0485919 19.3543 -0.00286865 19.5818 -0.00286865C19.8093 -0.00286865 20.0338 0.0485919 20.2386 0.147661C20.4435 0.24673 20.6232 0.390842 20.7644 0.569208L22.7918 3.11151Z" fill="#8554DC"/>
</g>
<defs>
<clipPath id="clip0_51_2886">
<rect width="229.644" height="40" fill="white"/>
</clipPath>
</defs>
</svg>
