<svg width="11" height="8" viewBox="0 0 11 8" fill="none" xmlns="http://www.w3.org/2000/svg">
<path d="M3.93575 7.92026C3.83122 7.91309 3.72947 7.88347 3.63742 7.8334C3.54538 7.78333 3.46523 7.71399 3.40242 7.63012C3.18055 7.40826 2.95869 7.16933 2.73682 6.94746C2.48082 6.69146 2.22482 6.41412 1.96882 6.16239C1.66162 5.85519 1.35442 5.53092 1.04722 5.22372C0.808288 4.98479 0.569355 4.76292 0.347488 4.50692C0.241484 4.37905 0.189343 4.21498 0.202082 4.04938C0.214821 3.88377 0.291443 3.72961 0.415756 3.61946C0.481504 3.56189 0.558572 3.51873 0.642005 3.49274C0.725437 3.46676 0.813385 3.45852 0.900192 3.46857C0.986998 3.47862 1.07074 3.50672 1.14603 3.55108C1.22132 3.59544 1.28649 3.65507 1.33736 3.72612C1.54216 3.96506 1.76402 4.16986 1.98589 4.39173C2.27602 4.68186 2.54909 4.97199 2.83922 5.26212C3.11229 5.53519 3.37256 5.80826 3.64136 6.08133L3.86322 6.30319C3.91442 6.37146 3.96989 6.38853 4.03389 6.30319C4.30696 6.01306 4.58002 5.75706 4.85309 5.46692C5.12616 5.19386 5.39922 4.90372 5.67229 4.63066C6.03069 4.27226 6.38909 3.91386 6.74749 3.53839C7.08882 3.19706 7.41309 2.83866 7.75442 2.49732L8.72722 1.52453C8.91496 1.33679 9.10269 1.13199 9.29042 0.944258C9.39773 0.836725 9.54157 0.773512 9.69335 0.767187C9.84514 0.760863 9.99374 0.811891 10.1096 0.910126C10.2066 0.991571 10.2776 1.09958 10.314 1.22086C10.3504 1.34215 10.3505 1.47142 10.3144 1.59279C10.2639 1.73365 10.1753 1.85772 10.0584 1.95119C9.80242 2.22426 9.54642 2.48453 9.29042 2.73626L8.62482 3.40186C8.35175 3.67492 8.07869 3.96506 7.80562 4.23812C7.46429 4.57946 7.12295 4.92079 6.79869 5.26212L5.41202 6.69572C5.07069 7.03706 4.72935 7.39546 4.38802 7.73679C4.33089 7.79891 4.2607 7.84759 4.18249 7.87931C4.10429 7.91104 4.02002 7.92502 3.93575 7.92026Z" fill="#333333"/>
</svg>
