<svg width="102" height="100" viewBox="0 0 102 100" fill="none" xmlns="http://www.w3.org/2000/svg">
<path d="M61.2846 19.2694L67.1436 44.1245L90.9379 53.3864L69.1102 66.6348L67.658 92.1295L48.3107 75.4652L23.6164 81.9617L33.4827 58.4126L19.6724 36.9294L45.1237 39.0367L61.2846 19.2694Z" fill="#EA7653"/>
<path d="M58.2516 30.3081L62.3126 47.53L78.8015 53.9477L63.6781 63.1311L62.6693 80.7969L49.261 69.2508L32.1491 73.7508L38.9866 57.4306L29.4195 42.547L47.053 44.0071L58.2516 30.3081Z" fill="#EA7653"/>
<path d="M47.7379 50.437C47.7132 50.5442 47.7819 50.6541 47.944 50.7668C48.1149 50.874 48.3208 50.993 48.5615 51.1238C48.8039 51.2475 49.0413 51.3927 49.2738 51.5592C49.5063 51.7258 49.683 51.9548 49.8039 52.2461C49.9336 52.5319 49.9555 52.8606 49.8698 53.2322C49.7361 53.811 49.4203 54.2009 48.9223 54.402C48.426 54.596 47.8634 54.6204 47.2346 54.4753C46.1056 54.2146 45.4356 53.6121 45.2247 52.6678L46.8011 52.1963C46.8467 52.6509 47.1017 52.9318 47.5662 53.039C47.952 53.1281 48.1705 53.0619 48.2217 52.8404C48.2464 52.7332 48.1741 52.6224 48.0048 52.5081C47.8427 52.3954 47.6404 52.2772 47.3981 52.1535C47.1573 52.0227 46.9207 51.874 46.6882 51.7074C46.4574 51.5337 46.2763 51.3075 46.1449 51.0288C46.0208 50.7518 45.9982 50.4418 46.0774 50.0988C46.2061 49.5414 46.506 49.1553 46.977 48.9405C47.4553 48.7272 47.9909 48.6891 48.584 48.826C49.027 48.9283 49.4076 49.1215 49.7258 49.4057C50.0457 49.6828 50.2735 50.0327 50.4092 50.4554L48.8666 50.8782C48.7677 50.5242 48.5646 50.3117 48.2574 50.2408C47.9572 50.1715 47.7841 50.2369 47.7379 50.437ZM55.3768 50.5523L56.9845 50.9235L55.7473 56.2825L54.1396 55.9113L54.2559 55.4076C53.7766 55.756 53.1939 55.8511 52.508 55.6927C51.8006 55.5294 51.2595 55.1185 50.8847 54.4599C50.5115 53.7943 50.4165 53.0649 50.5996 52.2717C50.7827 51.4786 51.187 50.8682 51.8126 50.4407C52.4398 50.006 53.1071 49.8703 53.8145 50.0336C54.5004 50.1919 54.9825 50.5328 55.2605 51.0561L55.3768 50.5523ZM52.3408 53.6785C52.5221 53.9687 52.8022 54.1575 53.1809 54.245C53.5596 54.3324 53.8941 54.2854 54.1843 54.1041C54.4745 53.9227 54.6658 53.632 54.7582 53.2318C54.8506 52.8317 54.8061 52.4865 54.6247 52.1963C54.4434 51.906 54.1634 51.7172 53.7847 51.6298C53.4059 51.5423 53.0715 51.5893 52.7812 51.7707C52.491 51.952 52.2997 52.2428 52.2073 52.6429C52.1149 53.0431 52.1594 53.3882 52.3408 53.6785ZM61.5831 51.9851L63.3623 52.3959L60.1422 57.2972L58.3202 56.8765L57.5745 51.0597L59.3537 51.4705L59.684 55.1254L61.5831 51.9851ZM64.412 56.1379C64.4823 56.681 64.8533 57.0301 65.525 57.1851C65.9608 57.2858 66.3352 57.2292 66.6479 57.0154L67.7634 58.0519C67.0647 58.6658 66.2009 58.854 65.172 58.6164C64.2716 58.4086 63.6118 57.974 63.1925 57.3127C62.7803 56.6531 62.6682 55.916 62.8563 55.1014C63.0427 54.294 63.4622 53.6834 64.1146 53.2695C64.7759 52.8502 65.5246 52.737 66.3606 52.9301C67.1394 53.1099 67.7234 53.5307 68.1125 54.1925C68.5104 54.8488 68.6161 55.5807 68.4297 56.3881C68.3769 56.6168 68.306 56.8262 68.2169 57.0164L64.412 56.1379ZM64.657 54.9301L66.9614 55.4621C66.9345 54.8613 66.621 54.4917 66.0208 54.3531C65.3991 54.2096 64.9445 54.4019 64.657 54.9301Z" fill="white"/>
<path d="M48.5032 64.3674L48.1369 65.9537L47.3867 65.7805L47.1095 66.9809L45.3732 66.5801L45.6503 65.3796L42.242 64.5928L42.6082 63.0065L46.0871 58.8423L47.9306 59.268L44.4517 63.4321L46.0166 63.7934L46.3877 62.1857L48.1241 62.5865L47.7529 64.1942L48.5032 64.3674ZM52.9736 63.6384C53.4144 63.9133 53.7384 64.2703 53.9456 64.7095C54.1544 65.1415 54.2011 65.6076 54.0856 66.1078C53.9041 66.8938 53.4979 67.4473 52.8668 67.7682C52.2358 68.0892 51.538 68.1614 50.7735 67.9849C50.1804 67.8479 49.6794 67.5893 49.2705 67.2089C48.8687 66.8301 48.6181 66.3508 48.5187 65.7709L50.1957 65.2549C50.2595 65.8266 50.5807 66.1792 51.1595 66.3128C51.4953 66.3904 51.7671 66.3703 51.9749 66.2527C52.1827 66.1351 52.3146 65.9549 52.3707 65.7119C52.4268 65.469 52.3872 65.2491 52.252 65.0523C52.1168 64.8555 51.8813 64.7184 51.5455 64.6408L51.1918 64.5592L50.7632 63.4329L52.5227 62.0215L49.7789 61.3881L50.1501 59.7804L54.9732 60.8939L54.6515 62.2872L52.9736 63.6384ZM58.1949 64.7648C57.7639 65.0341 57.2841 65.1077 56.7553 64.9856C56.2265 64.8635 55.8239 64.5862 55.5475 64.1536C55.2727 63.7138 55.1939 63.2403 55.311 62.733C55.4281 62.2257 55.7057 61.8382 56.1438 61.5705C56.5836 61.2958 57.0679 61.2194 57.5966 61.3415C58.1254 61.4635 58.5244 61.7401 58.7937 62.171C59.0718 62.5965 59.1506 63.07 59.0302 63.5916C58.9131 64.0989 58.6346 64.49 58.1949 64.7648ZM55.1267 67.59L61.2085 63.3494L61.8219 63.92L55.7376 68.1713L55.1267 67.59ZM56.6614 63.485C56.7422 63.6241 56.8648 63.7126 57.0291 63.7506C57.1935 63.7885 57.3424 63.7627 57.476 63.6731C57.6184 63.578 57.7077 63.4519 57.744 63.2947C57.7836 63.1232 57.7622 62.9715 57.6797 62.8396C57.599 62.7005 57.4728 62.6112 57.3013 62.5716C57.137 62.5336 56.988 62.5595 56.8545 62.649C56.7209 62.7386 56.6351 62.8656 56.5972 63.0299C56.5592 63.1943 56.5807 63.346 56.6614 63.485ZM61.0661 69.7853C60.6351 70.0546 60.1553 70.1282 59.6265 70.0062C59.0977 69.8841 58.6951 69.6068 58.4187 69.1742C58.1439 68.7344 58.0651 68.2609 58.1822 67.7535C58.2993 67.2462 58.577 66.8587 59.0151 66.5911C59.4548 66.3163 59.9391 66.24 60.4678 66.362C60.9966 66.4841 61.3948 66.7642 61.6624 67.2023C61.9389 67.6349 62.0185 68.1049 61.9014 68.6122C61.7843 69.1195 61.5058 69.5106 61.0661 69.7853ZM59.5327 68.5056C59.6134 68.6447 59.736 68.7332 59.9004 68.7711C60.0647 68.8091 60.2137 68.7832 60.3472 68.6937C60.4896 68.5986 60.5789 68.4724 60.6152 68.3153C60.6548 68.1438 60.6334 67.9921 60.551 67.8601C60.4702 67.7211 60.344 67.6317 60.1725 67.5921C60.0082 67.5542 59.8592 67.58 59.7257 67.6696C59.5921 67.7592 59.5063 67.8861 59.4684 68.0505C59.4304 68.2148 59.4519 68.3665 59.5327 68.5056ZM63.4171 67.9235L63.7142 65.1698L64.2091 63.0261L66.1384 63.4715L65.6435 65.6152L64.7033 68.2204L63.4171 67.9235ZM64.1944 70.7672C63.9481 70.9211 63.6856 70.9659 63.407 70.9015C63.1283 70.8372 62.912 70.6819 62.7581 70.4356C62.6043 70.1894 62.5595 69.9269 62.6238 69.6483C62.6882 69.3696 62.8435 69.1533 63.0897 68.9994C63.336 68.8455 63.5984 68.8008 63.8771 68.8651C64.1558 68.9294 64.3721 69.0847 64.5259 69.331C64.6798 69.5773 64.7246 69.8397 64.6603 70.1184C64.5959 70.3971 64.4406 70.6133 64.1944 70.7672Z" fill="white"/>
<path d="M14.178 78.1447C13.248 77.765 12.4113 77.1882 11.7255 76.4541C11.0398 75.72 10.5213 74.8459 10.2059 73.8921C10.2059 73.8921 9.38409 77.6116 6.53676 78.4845C7.44755 78.8213 8.26867 79.3631 8.93666 80.0679C9.60465 80.7727 10.1016 81.6217 10.3891 82.5492C10.3891 82.5492 10.7936 78.6544 14.1777 78.1415" fill="#8755DE"/>
<path d="M4.95773 61.2226L3.80869 63.6524L7.30798 63.4053" fill="#8755DE"/>
<path d="M36.2977 31.5955C36.3988 31.1534 36.6288 30.7512 36.9585 30.4398C37.2882 30.1284 37.7029 29.9218 38.1501 29.8463C38.5973 29.7707 39.0569 29.8295 39.4706 30.0152C39.8844 30.2009 40.2338 30.5052 40.4745 30.8895C40.7153 31.2739 40.8366 31.721 40.8231 32.1743C40.8096 32.6276 40.662 33.0668 40.3988 33.4362C40.1356 33.8055 39.7688 34.0885 39.3447 34.2493C38.9207 34.4101 38.4584 34.4415 38.0165 34.3395C37.4242 34.2027 36.9105 33.8363 36.5884 33.3208C36.2663 32.8053 36.1621 32.1829 36.2989 31.5906" fill="#DD89EF"/>
<path d="M74.9218 39.5243L83.6741 34.719L84.9039 38.754L74.9218 39.5243Z" fill="#DD89EF"/>
<path d="M28.3317 21.9257L24.2304 11.582L29.8388 8.15583L28.3317 21.9257Z" fill="#8755DE"/>
<path d="M92.6902 20.4627C91.7596 20.0833 90.9222 19.5066 90.236 18.7723C89.5497 18.0381 89.0308 17.1637 88.7151 16.2095C88.7151 16.2095 87.8934 19.929 85.046 20.8019C85.958 21.139 86.7801 21.6817 87.4486 22.3878C88.1171 23.0938 88.6141 23.9443 88.9009 24.8734C88.9009 24.8734 89.3055 20.9785 92.6896 20.4657" fill="#8755DE"/>
<path d="M91.7224 48.4031C92.6474 48.6166 93.5704 48.0399 93.784 47.1148C93.9976 46.1898 93.4208 45.2668 92.4957 45.0532C91.5707 44.8396 90.6477 45.4164 90.4341 46.3414C90.2205 47.2665 90.7973 48.1895 91.7224 48.4031Z" stroke="black" stroke-width="0.822" stroke-miterlimit="10"/>
<path d="M20.5119 67.7952C21.437 68.0088 22.36 67.432 22.5735 66.507C22.7871 65.5819 22.2103 64.6589 21.2853 64.4453C20.3602 64.2318 19.4372 64.8086 19.2237 65.7336C19.0101 66.6586 19.5869 67.5817 20.5119 67.7952Z" stroke="black" stroke-width="0.822" stroke-miterlimit="10"/>
<path d="M38.9629 23.634C39.108 23.0057 39.4361 22.4346 39.9057 21.9928C40.3753 21.551 40.9654 21.2584 41.6013 21.152C42.2373 21.0456 42.8905 21.1301 43.4783 21.395C44.0662 21.6598 44.5624 22.093 44.904 22.6398C45.2457 23.1866 45.4176 23.8224 45.3979 24.4669C45.3782 25.1113 45.1678 25.7355 44.7934 26.2604C44.419 26.7853 43.8973 27.1874 43.2944 27.4158C42.6914 27.6443 42.0343 27.6888 41.4061 27.5438C40.5636 27.3493 39.8329 26.8281 39.3748 26.0948C38.9166 25.3616 38.7685 24.4764 38.9629 23.634Z" fill="#D0ACF9"/>
<path d="M72.9026 33.5835L77.9228 28.8156L81.6554 31.8655L72.9026 33.5835Z" fill="#D0ACF9"/>
<path d="M26.3157 28.7994L27.1537 31.3533L29.5234 28.7661" fill="#8755DE"/>
<path d="M62.9872 21.9511L68.8462 46.8062L92.6406 56.0681L70.8168 69.3174L69.3613 94.8083L50.0132 78.1479L25.3195 84.6415L35.1858 61.0924L21.379 39.612L46.8254 41.7182L62.9872 21.9511Z" stroke="black" stroke-miterlimit="10"/>
</svg>
