<svg width="8" height="12" viewBox="0 0 8 12" fill="none" xmlns="http://www.w3.org/2000/svg">
<path d="M0.72 6.71997C0.579308 6.57946 0.500175 6.38882 0.5 6.18997V5.80997C0.502304 5.61156 0.581116 5.4217 0.72 5.27997L5.86 0.149974C5.95388 0.055318 6.08168 0.0020752 6.215 0.0020752C6.34832 0.0020752 6.47612 0.055318 6.57 0.149974L7.28 0.859974C7.37406 0.952138 7.42707 1.07828 7.42707 1.20997C7.42707 1.34166 7.37406 1.46781 7.28 1.55997L2.83 5.99997L7.28 10.44C7.37466 10.5339 7.4279 10.6617 7.4279 10.795C7.4279 10.9283 7.37466 11.0561 7.28 11.15L6.57 11.85C6.47612 11.9446 6.34832 11.9979 6.215 11.9979C6.08168 11.9979 5.95388 11.9446 5.86 11.85L0.72 6.71997Z" fill="#8554DC"/>
</svg>
