<svg width="230" height="40" viewBox="0 0 230 40" fill="none" xmlns="http://www.w3.org/2000/svg">
<g clip-path="url(#clip0_51_3862)">
<path d="M114.083 11.8658V16.0523C111.591 15.9517 108.774 17.1746 108.774 21.0806V30.1154H104.897V12.1875H108.774V15.2045C109.224 14.1809 109.97 13.3156 110.916 12.7204C111.863 12.1252 112.966 11.8275 114.083 11.8658Z" fill="#8554DC"/>
<path d="M71.5064 21.1822C71.5064 16.0241 67.8489 11.7219 62.5058 11.7219C61.2541 11.6783 60.0067 11.892 58.8409 12.3499C57.6751 12.8078 56.6157 13.5002 55.7283 14.3841C54.8409 15.268 54.1444 16.3246 53.6819 17.4886C53.2194 18.6526 53.0008 19.8991 53.0395 21.151C53.0395 26.5312 56.8791 30.58 62.7944 30.58C64.3257 30.6476 65.8491 30.3247 67.2213 29.6416C68.5935 28.9585 69.7694 27.9377 70.6385 26.6751L67.4526 24.8116C66.9201 25.5293 66.2203 26.1061 65.4141 26.4917C64.6078 26.8773 63.7196 27.06 62.8266 27.024C59.9595 27.024 57.6978 25.592 57.0944 22.8003H71.3626C71.4464 22.2647 71.4944 21.7241 71.5064 21.1822ZM57.0632 19.6405C57.2587 18.367 57.9197 17.2113 58.9182 16.3971C59.9168 15.5829 61.1818 15.168 62.4686 15.2327C63.7207 15.1896 64.9431 15.619 65.8933 16.4356C66.8434 17.2521 67.4518 18.3962 67.5974 19.6405H57.0632Z" fill="#8554DC"/>
<path d="M79.43 7.61383L75.5613 8.75928V12.1855H72.2617V15.9175H75.5613V24.5199C75.5613 29.1811 77.9246 30.8314 83.875 30.1104V26.6408C80.9355 26.7846 79.43 26.8138 79.43 24.5229V15.9206H83.875V12.1885H79.43V7.61383Z" fill="#8554DC"/>
<path d="M98.6743 21.7976C98.6743 25.4511 96.663 26.9566 94.1207 26.9566C91.686 26.9566 90.1081 25.5225 90.1081 22.7992V12.1865H86.2354V23.1954C86.2354 27.8567 89.1035 30.58 93.1231 30.58C94.2103 30.652 95.2972 30.4345 96.2731 29.9498C97.2489 29.4651 98.0788 28.7303 98.6783 27.8205V30.1114H102.547V12.1865H98.6783L98.6743 21.7976Z" fill="#8554DC"/>
<path d="M125.867 11.725C124.78 11.6521 123.693 11.8692 122.717 12.354C121.741 12.8388 120.911 13.574 120.312 14.4845V12.1865H116.436V30.1124H120.312V20.5084C120.312 16.8488 122.315 15.3423 124.858 15.3423C127.3 15.3423 128.881 16.7764 128.881 19.4997V30.1124H132.75V19.1105C132.753 14.4483 129.89 11.725 125.867 11.725Z" fill="#8554DC"/>
<path d="M52.7218 11.8658V16.0523C50.2298 15.9517 47.413 17.1746 47.413 21.0806V30.1154H43.5361V12.1875H47.413V15.2045C47.8625 14.1809 48.6086 13.3156 49.555 12.7204C50.5014 12.1252 51.6045 11.8275 52.7218 11.8658Z" fill="#8554DC"/>
<path d="M222.941 11.725C221.852 11.6531 220.764 11.8706 219.787 12.3555C218.81 12.8403 217.979 13.5753 217.378 14.4855V12.1846H213.508V30.1104H217.379V20.5064C217.379 16.8488 219.391 15.3413 221.931 15.3413C224.373 15.3413 225.953 16.7764 225.953 19.4997V30.1104H229.824V19.1085C229.821 14.4483 226.952 11.725 222.941 11.725ZM153.45 29.2445V32.3862H143.023V21.9596H146.168V26.5856C147.378 26.2181 148.427 25.4496 149.141 24.4064C149.856 23.3633 150.195 22.1078 150.101 20.8467C150.007 19.5856 149.486 18.3941 148.624 17.4685C147.763 16.5428 146.611 15.9382 145.36 15.7543C144.109 15.5703 142.833 15.8179 141.741 16.4563C140.649 17.0947 139.808 18.0859 139.355 19.2666C138.902 20.4472 138.864 21.747 139.249 22.9518C139.633 24.1565 140.416 25.1945 141.469 25.8947V30.0591C139.449 29.3446 137.733 27.9637 136.602 26.1437C135.472 24.3238 134.995 22.1731 135.25 20.0458C135.504 17.9185 136.476 15.9412 138.004 14.4395C139.532 12.9378 141.526 12.0012 143.657 11.7837C145.789 11.5662 147.931 12.0808 149.731 13.2429C151.531 14.405 152.881 16.1452 153.56 18.1773C154.24 20.2093 154.207 22.412 153.467 24.4228C152.727 26.4336 151.325 28.1328 149.491 29.2405L153.45 29.2445ZM168.199 12.1846V21.7976C168.199 25.4492 166.197 26.9557 163.647 26.9557C161.211 26.9557 159.632 25.5206 159.632 22.7973V12.1846H155.765V23.1955C155.765 27.8567 158.632 30.58 162.642 30.58C163.73 30.6519 164.817 30.4342 165.792 29.9493C166.768 29.4644 167.598 28.7295 168.198 27.8195V30.1114H172.075V12.1846H168.199ZM191.993 21.1822C191.993 16.0242 188.333 11.722 182.99 11.722C181.738 11.6775 180.49 11.8908 179.324 12.3484C178.158 12.8061 177.099 13.4985 176.212 14.3826C175.324 15.2667 174.628 16.3237 174.166 17.488C173.704 18.6523 173.487 19.8991 173.527 21.151C173.527 26.5313 177.362 30.58 183.281 30.58C184.814 30.6465 186.339 30.3232 187.713 29.6403C189.087 28.9573 190.265 27.9371 191.138 26.6751L187.94 24.8116C187.408 25.5298 186.708 26.1068 185.901 26.4924C185.095 26.8781 184.207 27.0606 183.314 27.024C180.447 27.024 178.185 25.592 177.581 22.8003H191.85C191.933 22.2648 191.979 21.7241 191.987 21.1822H191.993ZM177.547 19.6405C177.744 18.3674 178.405 17.2123 179.403 16.3982C180.401 15.5841 181.666 15.1689 182.953 15.2327C184.205 15.1889 185.428 15.618 186.378 16.4347C187.328 17.2514 187.936 18.3959 188.081 19.6405H177.547ZM211.961 21.1822C211.961 16.0242 208.306 11.722 202.96 11.722C201.708 11.677 200.46 11.8901 199.293 12.3479C198.127 12.8056 197.067 13.4983 196.179 14.3829C195.292 15.2675 194.595 16.3252 194.134 17.4902C193.672 18.6551 193.455 19.9026 193.496 21.155C193.496 26.5353 197.328 30.5841 203.251 30.5841C204.783 30.6521 206.308 30.3294 207.682 29.6464C209.056 28.9633 210.233 27.9422 211.104 26.6791L207.915 24.8156C207.382 25.5327 206.682 26.1089 205.876 26.4944C205.07 26.88 204.182 27.0631 203.289 27.0281C200.419 27.0281 198.16 25.596 197.557 22.8043H211.819C211.901 22.2673 211.948 21.7254 211.959 21.1822H211.961ZM197.519 19.6405C197.715 18.3661 198.377 17.2098 199.376 16.3956C200.376 15.5813 201.642 15.1669 202.93 15.2327C204.183 15.1877 205.406 15.6165 206.357 16.4334C207.307 17.2503 207.915 18.3954 208.059 19.6405H197.519Z" fill="#8554DC"/>
<path d="M22.0477 25.3154H25.6249V26.8782H18.9946V20.2479H20.5584V23.5666L20.9536 23.4569C21.8219 23.2205 22.5864 22.7009 23.1258 21.9806C23.6834 21.2239 23.9786 20.3058 23.9665 19.3659C23.9564 18.6205 23.7481 17.8911 23.3631 17.2527C22.9781 16.6143 22.4301 16.0898 21.7755 15.7331C21.1209 15.3763 20.3832 15.2 19.638 15.2224C18.8928 15.2448 18.167 15.4651 17.535 15.8605C16.903 16.256 16.3876 16.8124 16.0416 17.4728C15.6956 18.1332 15.5315 18.8737 15.5662 19.6184C15.6008 20.3631 15.8329 21.0852 16.2387 21.7106C16.6445 22.336 17.2093 22.8423 17.8753 23.1774V25.3275C16.4475 24.8812 15.2272 23.9374 14.4362 22.6677C13.6452 21.398 13.336 19.8867 13.5647 18.4084C13.7935 16.9301 14.545 15.5829 15.6828 14.6116C16.8205 13.6404 18.269 13.1097 19.7649 13.1158C21.4276 13.1016 23.0279 13.7475 24.2149 14.9119C24.8848 15.5876 25.393 16.4062 25.7014 17.3063C26.0099 18.2064 26.1106 19.1646 25.9961 20.1092C25.8815 21.0537 25.5547 21.9601 25.04 22.7604C24.5253 23.5606 23.8362 24.234 23.0242 24.7301L22.0477 25.3154Z" fill="#8554DC"/>
<path d="M39.0244 16.7452L36.8894 19.4313L35.942 18.2446L37.8658 15.825C37.8692 15.8215 37.8716 15.817 37.8726 15.8123C37.8737 15.8075 37.8734 15.8025 37.8719 15.7979C37.8711 15.7929 37.869 15.7882 37.8658 15.7843C37.8627 15.7804 37.8585 15.7775 37.8538 15.7757L35.1576 14.4825L34.5029 14.1687L33.1343 13.512L32.4806 13.1982L30.4773 12.2368C30.2721 12.1389 30.0918 11.9959 29.9497 11.8184C29.8076 11.6409 29.7074 11.4337 29.6567 11.2121L29.187 9.16656H30.7056L31.0988 10.8762C31.0999 10.881 31.1022 10.8855 31.1053 10.8893C31.1085 10.8931 31.1124 10.8962 31.1169 10.8983L32.8175 11.7139L33.4722 12.0277L34.8408 12.6844L35.4945 12.9981L38.4934 14.4362C38.6989 14.5339 38.8796 14.6769 39.0221 14.8544C39.1645 15.0319 39.2649 15.2394 39.3158 15.4612C39.3667 15.683 39.3667 15.9135 39.3159 16.1353C39.2651 16.3572 39.1647 16.5646 39.0224 16.7422L39.0244 16.7452Z" fill="#8554DC"/>
<path d="M35.4643 32.4304C35.3231 32.6085 35.1435 32.7523 34.9389 32.8512C34.7343 32.9502 34.5099 33.0016 34.2827 33.0016L30.9268 33.0066L31.2647 31.5263H34.2816C34.2867 31.5267 34.2917 31.5259 34.2963 31.5237C34.3009 31.5216 34.3048 31.5184 34.3078 31.5143C34.3111 31.5105 34.3135 31.5059 34.3145 31.501C34.3156 31.496 34.3154 31.4909 34.3139 31.4861L33.6611 28.6441L33.4982 27.9401L33.1583 26.4608L32.9954 25.7569L32.4815 23.5193C32.4304 23.2978 32.43 23.0676 32.4803 22.8459C32.5306 22.6242 32.6304 22.4168 32.7722 22.2391L34.0905 20.5807L35.0369 21.7674L33.9307 23.1603C33.9277 23.1642 33.9256 23.1688 33.9246 23.1737C33.9235 23.1785 33.9235 23.1836 33.9246 23.1884L34.3631 25.0992L34.526 25.8031L34.866 27.2824L35.0289 27.9864L35.757 31.1552C35.807 31.3761 35.8067 31.6054 35.756 31.8262C35.7054 32.0469 35.6057 32.2534 35.4643 32.4304Z" fill="#8554DC"/>
<path d="M28.2991 31.5303L27.9612 33.0107H26.1077C26.1027 33.0106 26.0978 33.0116 26.0933 33.0137C26.0887 33.0158 26.0847 33.0189 26.0816 33.0227L24.8506 34.5704L24.3981 35.1386L23.4548 36.3264L23.0023 36.8946L20.9909 39.4268C20.8497 39.6049 20.6701 39.7487 20.4655 39.8476C20.2609 39.9465 20.0366 39.998 19.8093 39.998C19.5823 39.9983 19.3581 39.9474 19.1535 39.849C18.9489 39.7506 18.7692 39.6073 18.6276 39.4298L16.5781 36.8674L17.9458 36.2097L19.7831 38.5066C19.7861 38.5106 19.7901 38.5139 19.7947 38.516C19.7992 38.5181 19.8043 38.519 19.8093 38.5187C19.8144 38.5191 19.8196 38.5181 19.8242 38.5158C19.8288 38.5135 19.8327 38.51 19.8354 38.5056L21.6396 36.2369L22.0911 35.6687L23.0354 34.481L23.487 33.9128L24.9271 32.1026C25.0683 31.9245 25.2479 31.7806 25.4525 31.6817C25.6572 31.5828 25.8815 31.5314 26.1087 31.5314L28.2991 31.5303Z" fill="#8554DC"/>
<path d="M16.0855 33.8916L14.7188 34.5493L13.512 33.0408C13.5089 33.037 13.5049 33.0339 13.5003 33.0318C13.4958 33.0297 13.4909 33.0287 13.4859 33.0288H11.5601H10.835H9.31745H8.59237H5.30488C5.07753 33.0296 4.85293 32.979 4.64788 32.8808C4.44283 32.7826 4.26264 32.6393 4.12076 32.4616C3.97889 32.284 3.879 32.0765 3.82858 31.8548C3.77816 31.6331 3.7785 31.4029 3.82958 31.1814L4.55164 27.9974L5.91934 28.6562L5.27269 31.5082C5.27136 31.513 5.27122 31.5181 5.27227 31.523C5.27332 31.5279 5.27554 31.5325 5.27873 31.5364C5.28167 31.5405 5.28563 31.5437 5.29021 31.5458C5.29479 31.548 5.29985 31.5488 5.30488 31.5484H8.25648H8.98156H10.4991H11.2252H13.4849C13.7117 31.5483 13.9357 31.5993 14.1401 31.6976C14.3445 31.796 14.5241 31.9392 14.6655 32.1166L16.0855 33.8916Z" fill="#8554DC"/>
<path d="M7.08176 23.5444L6.57893 25.7729L5.21123 25.1142L5.64166 23.2166C5.64283 23.2117 5.6429 23.2067 5.64185 23.2018C5.64081 23.1969 5.63868 23.1924 5.63562 23.1884L4.48515 21.7503L4.0326 21.1831L3.08528 19.9985L2.63172 19.4313L0.522862 16.8015C0.380094 16.6243 0.279256 16.4171 0.227896 16.1955C0.176536 15.9738 0.175987 15.7434 0.226288 15.5215C0.276589 15.2996 0.376438 15.092 0.518358 14.9141C0.660279 14.7363 0.840594 14.5928 1.0458 14.4945L4.0326 13.0514L4.37051 14.5317L1.68942 15.826C1.68486 15.828 1.68084 15.831 1.67769 15.8349C1.67454 15.8387 1.67236 15.8433 1.67132 15.8481C1.6697 15.8529 1.66941 15.8581 1.67047 15.863C1.67153 15.868 1.67391 15.8726 1.67736 15.8763L3.57302 18.2466L4.02657 18.8138L4.9739 19.9985L5.42644 20.5657L6.78609 22.2662C6.92844 22.4433 7.02896 22.6502 7.08016 22.8715C7.13135 23.0928 7.1319 23.3228 7.08176 23.5444Z" fill="#8554DC"/>
<path d="M15.4337 3.37595L14.4873 4.56263L11.7278 3.23918C11.7234 3.23662 11.7183 3.23528 11.7132 3.23528C11.7081 3.23528 11.7031 3.23662 11.6986 3.23918C11.694 3.24109 11.69 3.24411 11.6868 3.24797C11.6836 3.25183 11.6815 3.25641 11.6805 3.26131L10.9977 6.27023L10.8378 6.97419L10.5019 8.45352L10.342 9.15748L9.87137 11.2311C9.82149 11.4529 9.72214 11.6605 9.58073 11.8385C9.43933 12.0165 9.25953 12.1602 9.05478 12.2589L7.04347 13.2304L6.70557 11.7501L8.40915 10.9264C8.41381 10.9246 8.41792 10.9216 8.42109 10.9177C8.42426 10.9139 8.42638 10.9092 8.42724 10.9043L8.82347 9.15748L8.98338 8.45352L9.31927 6.97419L9.47916 6.27023L10.2354 2.93347C10.285 2.71141 10.3842 2.50345 10.5255 2.32514C10.6669 2.14684 10.8467 2.00282 11.0516 1.90387C11.2564 1.80491 11.4811 1.75358 11.7086 1.75372C11.9361 1.75386 12.1606 1.80547 12.3654 1.90468L15.4337 3.37595Z" fill="#8554DC"/>
<path d="M30.0429 6.26924H28.5294L27.8325 3.23719C27.8315 3.23229 27.8294 3.2277 27.8262 3.22384C27.8231 3.21998 27.819 3.21697 27.8144 3.21506C27.8099 3.2125 27.8049 3.21115 27.7998 3.21115C27.7947 3.21115 27.7896 3.2125 27.7852 3.21506L25.0247 4.54957L24.372 4.86534L23.0053 5.52506L22.3516 5.84083L20.4188 6.77509C20.214 6.8741 19.9895 6.92553 19.7621 6.92553C19.5347 6.92553 19.3101 6.8741 19.1054 6.77509L17.1675 5.84586L18.1148 4.65818L19.746 5.44058C19.7505 5.44288 19.7555 5.44407 19.7606 5.44407C19.7656 5.44407 19.7706 5.44288 19.7752 5.44058L21.4053 4.65215L22.059 4.33637L23.4257 3.67666L24.0784 3.36088L27.1406 1.88056C27.3451 1.78075 27.5696 1.72853 27.7972 1.72779C28.0248 1.72706 28.2496 1.77783 28.4548 1.87631C28.66 1.97479 28.8402 2.11843 28.982 2.29646C29.1238 2.47449 29.2235 2.68229 29.2736 2.90431L30.0429 6.26924Z" fill="#8554DC"/>
<path d="M35.7236 8.82661L35.0036 11.9804L33.6348 11.3247L34.2805 8.49776C34.2816 8.49294 34.2815 8.48794 34.2804 8.48314C34.2793 8.47833 34.2771 8.47385 34.274 8.46999C34.2709 8.46614 34.267 8.46302 34.2626 8.46086C34.2581 8.45871 34.2533 8.45757 34.2483 8.45753H26.0673C25.84 8.45776 25.6155 8.40659 25.4107 8.30785C25.2059 8.20911 25.0261 8.06535 24.8847 7.88733L23.4536 6.09223L24.8203 5.43152L26.0422 6.96413C26.0451 6.96828 26.0491 6.97165 26.0536 6.97393C26.0582 6.97621 26.0632 6.97733 26.0683 6.97721H34.2493C34.4769 6.97633 34.7017 7.02695 34.907 7.12527C35.1122 7.2236 35.2925 7.36708 35.4344 7.54498C35.5763 7.72288 35.6762 7.93058 35.7264 8.15253C35.7767 8.37449 35.776 8.60493 35.7246 8.82661H35.7236Z" fill="#8554DC"/>
<path d="M39.3032 24.5059C39.2529 24.7277 39.1532 24.9352 39.0114 25.113C38.8697 25.2908 38.6896 25.4343 38.4845 25.5326L35.5229 26.9587L35.183 25.4803L37.842 24.1991C37.8467 24.1974 37.8508 24.1944 37.854 24.1905C37.8572 24.1866 37.8593 24.182 37.8601 24.177C37.8617 24.1722 37.862 24.1671 37.8609 24.1621C37.8599 24.1572 37.8574 24.1526 37.854 24.1489L35.9433 21.7554L35.4907 21.1882L34.5444 20.0015L34.0919 19.4333L32.7513 17.7529C32.6092 17.5753 32.509 17.368 32.4583 17.1463C32.4077 16.9246 32.4078 16.6943 32.4586 16.4727L32.9736 14.217L34.3422 14.8737L33.9018 16.8015C33.9006 16.8064 33.9005 16.8114 33.9016 16.8163C33.9026 16.8212 33.9048 16.8257 33.9078 16.8297L35.0361 18.2446L35.4887 18.8118L36.4351 19.9995L36.8875 20.5667L39.0075 23.2257C39.1501 23.4029 39.2508 23.6102 39.302 23.8319C39.3532 24.0536 39.3536 24.284 39.3032 24.5059Z" fill="#8554DC"/>
<path d="M32.8476 28.2468L31.1138 29.0826C31.1093 29.0846 31.1053 29.0876 31.1021 29.0915C31.099 29.0953 31.0968 29.0998 31.0957 29.1047L30.7045 30.8143L30.5426 31.5183L30.2046 32.9976L30.0438 33.7015L29.2755 37.0655C29.2257 37.2875 29.1263 37.4953 28.9848 37.6735C28.8433 37.8517 28.6633 37.9956 28.4583 38.0943C28.2533 38.1931 28.0287 38.2442 27.8012 38.2438C27.5736 38.2435 27.3491 38.1916 27.1445 38.0922L24.1084 36.63L25.0527 35.4423L27.787 36.7597C27.7915 36.7622 27.7966 36.7635 27.8017 36.7635C27.8068 36.7635 27.8117 36.7622 27.8162 36.7597C27.8208 36.7578 27.8249 36.7548 27.8281 36.751C27.8312 36.7471 27.8334 36.7425 27.8343 36.7376L28.5263 33.7035L28.6881 32.9996L29.026 31.5193L29.1879 30.8153L29.6545 28.7688C29.7048 28.547 29.8045 28.3394 29.9463 28.1616C30.088 27.9838 30.2682 27.8404 30.4732 27.742L32.5097 26.7615L32.8476 28.2468Z" fill="#8554DC"/>
<path d="M22.378 34.1682L21.4337 35.3559L19.7743 34.5514C19.765 34.5475 19.7545 34.5475 19.7452 34.5514L18.1422 35.3237L17.4875 35.6385L16.1198 36.2962L15.4651 36.6109L12.3737 38.1003C12.169 38.1997 11.9445 38.2516 11.717 38.2519C11.4895 38.2523 11.2648 38.2012 11.0599 38.1024C10.8549 38.0036 10.6749 37.8598 10.5334 37.6816C10.3919 37.5034 10.2925 37.2956 10.2427 37.0736L9.48145 33.7388H10.999L11.6858 36.7467C11.6867 36.7516 11.6888 36.7563 11.692 36.7601C11.6952 36.764 11.6993 36.767 11.7039 36.7689C11.7084 36.7713 11.7134 36.7726 11.7185 36.7726C11.7236 36.7726 11.7286 36.7713 11.7331 36.7689L14.5178 35.4273L15.1725 35.1125L16.5391 34.4538L17.1938 34.1391L19.1046 33.2199C19.3093 33.1209 19.5338 33.0695 19.7613 33.0695C19.9887 33.0695 20.2132 33.1209 20.418 33.2199L22.378 34.1682Z" fill="#8554DC"/>
<path d="M10.335 30.8485H8.81748L8.41522 29.1027C8.41404 29.0979 8.4118 29.0934 8.40867 29.0896C8.40554 29.0858 8.40159 29.0827 8.39712 29.0806L6.72672 28.276L6.07204 27.9613L4.7134 27.3016L4.05871 26.9868L1.0347 25.5326C0.829417 25.4346 0.648962 25.2914 0.506845 25.1138C0.364727 24.9361 0.264629 24.7286 0.21404 24.5068C0.163451 24.285 0.163683 24.0547 0.214718 23.833C0.265753 23.6113 0.36627 23.404 0.508744 23.2266L2.62967 20.5637L3.577 21.7483L1.66626 24.1448C1.66298 24.1486 1.66072 24.1532 1.65966 24.1581C1.65861 24.163 1.6588 24.1682 1.66022 24.173C1.66117 24.1779 1.66333 24.1824 1.66649 24.1863C1.66964 24.1902 1.67371 24.1932 1.67832 24.1951L4.3936 25.5025L5.04828 25.8172L6.41698 26.4759L7.07166 26.7907L9.04778 27.742C9.25279 27.8404 9.43291 27.9839 9.57467 28.1617C9.71642 28.3395 9.81615 28.547 9.86638 28.7688L10.335 30.8485Z" fill="#8554DC"/>
<path d="M5.24358 8.46861C5.24039 8.47247 5.23817 8.47704 5.23712 8.48195C5.23607 8.48685 5.23621 8.49194 5.23754 8.49677L5.89223 11.3649L6.05414 12.0688L6.39204 13.5492L6.55395 14.2531L7.05678 16.4656C7.10779 16.6872 7.10805 16.9174 7.05755 17.1391C7.00705 17.3608 6.90709 17.5682 6.76514 17.7458L5.42661 19.4232L4.47928 18.2386L5.60863 16.8226C5.61163 16.8186 5.61372 16.814 5.61476 16.8092C5.6158 16.8043 5.61577 16.7993 5.61467 16.7944L5.18526 14.9139L5.02334 14.2099L4.68544 12.7296L4.52353 12.0256L3.79342 8.82562C3.74199 8.60393 3.74139 8.37349 3.79164 8.15154C3.8419 7.92959 3.94172 7.72188 4.08364 7.54398C4.22555 7.36608 4.40587 7.2226 4.6111 7.12427C4.81633 7.02595 5.04116 6.97533 5.26873 6.97621H8.59443L8.25854 8.45554H5.26973C5.26462 8.45532 5.25954 8.4564 5.25497 8.45868C5.25039 8.46097 5.24648 8.46439 5.24358 8.46861Z" fill="#8554DC"/>
<path d="M22.97 3.11151L21.6034 3.77122L19.7851 1.4914C19.7821 1.48736 19.7782 1.48415 19.7736 1.48204C19.769 1.47993 19.764 1.479 19.759 1.47933C19.754 1.4789 19.7489 1.47979 19.7443 1.48191C19.7397 1.48402 19.7358 1.48729 19.7328 1.4914L17.9116 3.77826L17.4591 4.34646L16.5127 5.53313L16.0602 6.10032L14.6332 7.88737C14.4917 8.0654 14.3119 8.20915 14.1071 8.30789C13.9023 8.40663 13.6779 8.4578 13.4505 8.45758H11.229L11.5639 6.97826H13.4495C13.4546 6.97822 13.4596 6.97702 13.4641 6.97476C13.4686 6.97249 13.4726 6.96922 13.4756 6.96519L14.6935 5.44363L15.146 4.87644L16.0934 3.68976L16.5459 3.12257L18.5773 0.569208C18.7186 0.390842 18.8983 0.24673 19.1031 0.147661C19.3079 0.0485919 19.5325 -0.00286865 19.76 -0.00286865C19.9875 -0.00286865 20.2121 0.0485919 20.4169 0.147661C20.6217 0.24673 20.8014 0.390842 20.9427 0.569208L22.97 3.11151Z" fill="#8554DC"/>
</g>
<defs>
<clipPath id="clip0_51_3862">
<rect width="229.644" height="40" fill="white" transform="translate(0.178223)"/>
</clipPath>
</defs>
</svg>
