<svg width="20" height="20" viewBox="0 0 20 20" fill="none" xmlns="http://www.w3.org/2000/svg">
<path fill-rule="evenodd" clip-rule="evenodd" d="M8.33299 1.6666C12.0246 1.6666 14.9994 4.64137 14.9994 8.33299C14.9994 12.0246 12.0246 14.9994 8.33299 14.9994C4.64135 14.9994 1.66655 12.0246 1.66655 8.33299C1.66654 4.64137 4.64135 1.6666 8.33299 1.6666ZM0 8.33296C0 12.9253 3.74071 16.666 8.33305 16.666C10.3301 16.666 12.1657 15.9568 13.6031 14.7796L18.5703 19.7469C18.8978 20.0838 19.4383 20.0839 19.7617 19.7502C20.085 19.4163 20.0781 18.8891 19.7487 18.5686L14.7814 13.6014C15.9578 12.1643 16.6661 10.3292 16.6661 8.33302C16.6661 3.74071 12.9254 3.94978e-05 8.33306 3.12785e-10C3.74069 -3.94971e-05 -9.87434e-06 3.74064 0 8.33296Z" fill="#757575"/>
</svg>
