<svg width="24" height="24" viewBox="0 0 24 24" fill="none" xmlns="http://www.w3.org/2000/svg">
<path d="M13.1226 15.1906H15.2688V16.1282H11.2907V12.1502H12.229V14.1413L12.4661 14.0755C12.9871 13.9337 13.4458 13.622 13.7694 13.1898C14.104 12.7358 14.2811 12.1849 14.2738 11.621C14.2677 11.1737 14.1428 10.7362 13.9118 10.3531C13.6808 9.97009 13.352 9.65539 12.9593 9.44133C12.5665 9.22726 12.1239 9.12152 11.6768 9.13496C11.2297 9.1484 10.7942 9.28053 10.415 9.5178C10.0358 9.75507 9.72657 10.0889 9.51899 10.4851C9.3114 10.8814 9.21294 11.3256 9.23372 11.7725C9.2545 12.2193 9.39376 12.6525 9.63722 13.0278C9.88068 13.403 10.2196 13.7068 10.6191 13.9078V15.1978C9.76249 14.9301 9.03034 14.3638 8.55575 13.602C8.08115 12.8402 7.89562 11.9335 8.03287 11.0465C8.17012 10.1595 8.62103 9.35121 9.30367 8.76849C9.98632 8.18577 10.8554 7.86732 11.7529 7.87099C12.7505 7.86248 13.7107 8.25002 14.4229 8.94861C14.8247 9.35405 15.1297 9.84521 15.3147 10.3853C15.4998 10.9253 15.5603 11.5002 15.4915 12.0669C15.4228 12.6337 15.2267 13.1775 14.9179 13.6576C14.6091 14.1378 14.1956 14.5418 13.7085 14.8394L13.1226 15.1906Z" fill="white"/>
<path d="M23.3083 10.0486L22.0273 11.6602L21.4589 10.9482L22.6132 9.49651C22.6152 9.49437 22.6166 9.49173 22.6173 9.48886C22.6179 9.48599 22.6178 9.483 22.6168 9.48021C22.6164 9.47723 22.6151 9.47443 22.6132 9.47209C22.6113 9.46976 22.6088 9.46798 22.606 9.46694L20.9883 8.69099L20.5955 8.50274L19.7743 8.10873L19.3821 7.92048L18.1802 7.34364C18.0571 7.28488 17.9488 7.19906 17.8636 7.09259C17.7783 6.98612 17.7182 6.86176 17.6878 6.7288L17.406 5.50153H18.3171L18.553 6.52727C18.5537 6.53015 18.5551 6.53284 18.557 6.53513C18.5589 6.53743 18.5612 6.53928 18.5639 6.54055L19.5842 7.02988L19.977 7.21814L20.7982 7.61215L21.1904 7.80041L22.9897 8.66323C23.113 8.72188 23.2214 8.80767 23.3069 8.91417C23.3924 9.02067 23.4526 9.14513 23.4832 9.27823C23.5137 9.41132 23.5137 9.54959 23.4832 9.68269C23.4527 9.81579 23.3925 9.94026 23.3071 10.0468L23.3083 10.0486Z" fill="white"/>
<path d="M21.1724 19.4596C21.0877 19.5664 20.9799 19.6528 20.8572 19.7121C20.7344 19.7715 20.5998 19.8023 20.4635 19.8023L18.45 19.8053L18.6527 18.9172H20.4628C20.4658 18.9174 20.4689 18.9169 20.4716 18.9156C20.4744 18.9144 20.4768 18.9124 20.4785 18.9099C20.4805 18.9077 20.4819 18.9049 20.4826 18.902C20.4832 18.899 20.4831 18.8959 20.4822 18.893L20.0905 17.1879L19.9928 16.7655L19.7888 15.8779L19.6911 15.4556L19.3828 14.1131C19.3521 13.9802 19.3519 13.842 19.3821 13.709C19.4122 13.576 19.4721 13.4516 19.5572 13.3449L20.3482 12.35L20.916 13.062L20.2522 13.8976C20.2505 13.9 20.2492 13.9028 20.2486 13.9057C20.248 13.9086 20.248 13.9116 20.2486 13.9145L20.5117 15.061L20.6095 15.4833L20.8134 16.3709L20.9112 16.7933L21.348 18.6945C21.3781 18.827 21.3779 18.9646 21.3475 19.0971C21.3171 19.2295 21.2572 19.3534 21.1724 19.4596Z" fill="white"/>
<path d="M16.8732 18.9195L16.6705 19.8077H15.5584C15.5555 19.8076 15.5525 19.8082 15.5498 19.8095C15.5471 19.8108 15.5447 19.8126 15.5428 19.8149L14.8042 20.7435L14.5327 21.0844L13.9667 21.797L13.6952 22.138L12.4885 23.6573C12.4037 23.7641 12.296 23.8504 12.1732 23.9098C12.0504 23.9691 11.9158 24 11.7795 24C11.6433 24.0002 11.5088 23.9696 11.386 23.9106C11.2633 23.8515 11.1554 23.7656 11.0705 23.6591L9.84082 22.1216L10.6614 21.727L11.7638 23.1052C11.7656 23.1076 11.768 23.1095 11.7707 23.1108C11.7734 23.1121 11.7765 23.1126 11.7795 23.1124C11.7826 23.1127 11.7857 23.1121 11.7884 23.1107C11.7912 23.1093 11.7935 23.1072 11.7952 23.1046L12.8776 21.7433L13.1485 21.4024L13.7151 20.6898L13.986 20.3489L14.8501 19.2628C14.9348 19.156 15.0426 19.0697 15.1653 19.0103C15.2881 18.951 15.4227 18.9201 15.5591 18.9201L16.8732 18.9195Z" fill="white"/>
<path d="M9.54524 20.3362L8.72525 20.7308L8.00119 19.8257C7.99928 19.8234 7.99689 19.8215 7.99417 19.8203C7.99146 19.819 7.98849 19.8184 7.9855 19.8185H6.83003H6.39499H5.48449H5.04945H3.077C2.94059 19.819 2.80584 19.7886 2.68281 19.7297C2.55978 19.6708 2.45167 19.5848 2.36654 19.4782C2.28142 19.3716 2.22149 19.2471 2.19124 19.1141C2.16099 18.9811 2.16119 18.843 2.19184 18.7101L2.62507 16.7997L3.44567 17.195L3.05769 18.9062C3.05689 18.9091 3.05681 18.9121 3.05744 18.915C3.05807 18.918 3.05939 18.9207 3.06131 18.9231C3.06308 18.9255 3.06545 18.9275 3.0682 18.9287C3.07095 18.93 3.07398 18.9305 3.077 18.9303H4.84792H5.28296H6.19346H6.6291H7.9849C8.121 18.9302 8.25538 18.9608 8.37803 19.0198C8.50067 19.0788 8.60843 19.1648 8.69327 19.2712L9.54524 20.3362Z" fill="white"/>
<path d="M4.14315 14.128L3.84146 15.4651L3.02086 15.0699L3.27911 13.9313C3.27981 13.9284 3.27985 13.9254 3.27923 13.9225C3.2786 13.9195 3.27732 13.9168 3.27549 13.9144L2.58522 13.0516L2.3137 12.7113L1.74532 12.0005L1.47319 11.6602L0.207902 10.0823C0.122244 9.97604 0.0617416 9.85174 0.0309266 9.71875C0.000111481 9.58575 -0.000218389 9.4475 0.0299616 9.31436C0.0601417 9.18122 0.12005 9.05665 0.2052 8.94994C0.290351 8.84323 0.398537 8.75716 0.52166 8.69819L2.3137 7.83234L2.51644 8.72052L0.907824 9.49707C0.905086 9.49825 0.902672 9.50008 0.900782 9.50239C0.898893 9.5047 0.897583 9.50742 0.896963 9.51034C0.89599 9.51322 0.895813 9.51632 0.89645 9.51929C0.897087 9.52226 0.898515 9.525 0.900583 9.52723L2.03796 10.9494L2.31008 11.2897L2.87847 12.0005L3.14999 12.3408L3.96576 13.3611C4.05116 13.4673 4.11147 13.5915 4.14219 13.7243C4.17291 13.8571 4.17324 13.9951 4.14315 14.128Z" fill="white"/>
<path d="M9.15422 2.02727L8.58644 2.73926L6.93076 1.94521C6.9281 1.94368 6.92508 1.94287 6.92201 1.94287C6.91894 1.94287 6.91592 1.94368 6.91326 1.94521C6.9105 1.94635 6.90805 1.94817 6.90616 1.95048C6.90426 1.9528 6.90297 1.95555 6.9024 1.95849L6.4927 3.7638L6.39677 4.18617L6.19524 5.07374L6.0993 5.49611L5.81692 6.74028C5.78699 6.87334 5.72738 6.99791 5.64254 7.10469C5.5577 7.21147 5.44983 7.2977 5.32698 7.35693L4.12022 7.9398L3.91748 7.05162L4.93961 6.55745C4.94241 6.55636 4.94487 6.55456 4.94677 6.55224C4.94867 6.54991 4.94994 6.54714 4.95046 6.54418L5.18819 5.49611L5.28414 5.07374L5.48567 4.18617L5.5816 3.7638L6.03534 1.76179C6.06509 1.62856 6.1246 1.50378 6.2094 1.3968C6.2942 1.28982 6.4021 1.20341 6.52502 1.14404C6.64794 1.08467 6.78271 1.05387 6.91922 1.05396C7.05573 1.05404 7.19045 1.085 7.3133 1.14453L9.15422 2.02727Z" fill="white"/>
<path d="M17.9197 3.7632H17.0116L16.5934 1.94401C16.5929 1.94107 16.5916 1.93832 16.5897 1.93601C16.5878 1.93369 16.5853 1.93188 16.5826 1.93074C16.5799 1.9292 16.5769 1.92839 16.5738 1.92839C16.5708 1.92839 16.5677 1.9292 16.5651 1.93074L14.9088 2.73142L14.5172 2.92089L13.6972 3.3167L13.305 3.50617L12.1453 4.06671C12.0225 4.12611 11.8878 4.15697 11.7513 4.15697C11.6149 4.15697 11.4801 4.12611 11.3573 4.06671L10.1946 3.50918L10.763 2.79659L11.7416 3.26602C11.7444 3.2674 11.7474 3.26812 11.7504 3.26812C11.7534 3.26812 11.7564 3.2674 11.7592 3.26602L12.7372 2.79297L13.1294 2.60351L13.9494 2.20769L14.341 2.01823L16.1783 1.13005C16.301 1.07017 16.4357 1.03884 16.5723 1.0384C16.7088 1.03796 16.8437 1.06842 16.9668 1.12751C17.0899 1.18659 17.1981 1.27278 17.2831 1.37959C17.3682 1.48641 17.428 1.61108 17.4581 1.74429L17.9197 3.7632Z" fill="white"/>
<path d="M21.3279 5.29751L20.8959 7.18971L20.0747 6.79631L20.4621 5.1002C20.4627 5.09731 20.4627 5.09431 20.462 5.09143C20.4613 5.08855 20.46 5.08586 20.4582 5.08354C20.4563 5.08123 20.454 5.07936 20.4513 5.07807C20.4486 5.07677 20.4457 5.07609 20.4428 5.07607H15.5343C15.3978 5.0762 15.2632 5.0455 15.1403 4.98626C15.0174 4.92702 14.9095 4.84076 14.8247 4.73395L13.9661 3.65692L14.786 3.2605L15.5192 4.18005C15.5209 4.18254 15.5233 4.18456 15.526 4.18593C15.5288 4.18729 15.5318 4.18797 15.5349 4.18789H20.4433C20.5799 4.18736 20.7148 4.21773 20.8379 4.27673C20.9611 4.33572 21.0692 4.42181 21.1544 4.52855C21.2395 4.63529 21.2994 4.7599 21.3296 4.89307C21.3598 5.02624 21.3594 5.1645 21.3285 5.29751H21.3279Z" fill="white"/>
<path d="M23.4755 14.7048C23.4454 14.8379 23.3855 14.9624 23.3005 15.0691C23.2154 15.1758 23.1074 15.2618 22.9843 15.3209L21.2074 16.1765L21.0034 15.2895L22.5988 14.5208C22.6016 14.5197 22.6041 14.5179 22.606 14.5156C22.6079 14.5133 22.6092 14.5105 22.6097 14.5075C22.6106 14.5046 22.6108 14.5015 22.6102 14.4986C22.6095 14.4956 22.6081 14.4928 22.606 14.4906L21.4596 13.0546L21.1881 12.7143L20.6203 12.0023L20.3488 11.6614L19.5445 10.6531C19.4592 10.5466 19.3991 10.4222 19.3687 10.2892C19.3383 10.1562 19.3384 10.018 19.3689 9.88501L19.6778 8.53162L20.499 8.92563L20.2347 10.0823C20.234 10.0852 20.234 10.0882 20.2346 10.0912C20.2353 10.0941 20.2365 10.0968 20.2384 10.0992L20.9153 10.9482L21.1869 11.2885L21.7547 12.0011L22.0262 12.3414L23.2981 13.9367C23.3837 14.0431 23.4441 14.1674 23.4748 14.3004C23.5055 14.4334 23.5058 14.5717 23.4755 14.7048Z" fill="white"/>
<path d="M19.6023 16.9495L18.562 17.4509C18.5593 17.4521 18.5569 17.454 18.555 17.4563C18.5532 17.4586 18.5518 17.4613 18.5512 17.4642L18.3164 18.4899L18.2193 18.9123L18.0165 19.7999L17.92 20.2222L17.4591 22.2405C17.4292 22.3738 17.3695 22.4985 17.2846 22.6054C17.1997 22.7123 17.0918 22.7986 16.9688 22.8578C16.8458 22.9171 16.711 22.9478 16.5745 22.9476C16.438 22.9473 16.3033 22.9162 16.1805 22.8566L14.3589 21.9793L14.9254 21.2667L16.566 22.0571C16.5687 22.0586 16.5717 22.0594 16.5748 22.0594C16.5779 22.0594 16.5808 22.0586 16.5835 22.0571C16.5863 22.056 16.5887 22.0542 16.5906 22.0518C16.5925 22.0495 16.5938 22.0468 16.5944 22.0439L17.0095 20.2234L17.1067 19.8011L17.3094 18.9129L17.4065 18.4905L17.6865 17.2627C17.7166 17.1296 17.7765 17.005 17.8615 16.8984C17.9466 16.7917 18.0547 16.7056 18.1777 16.6466L19.3995 16.0583L19.6023 16.9495Z" fill="white"/>
<path d="M13.3208 20.5021L12.7542 21.2147L11.7586 20.732C11.753 20.7297 11.7467 20.7297 11.7411 20.732L10.7793 21.1954L10.3865 21.3843L9.56592 21.7789L9.17312 21.9677L7.31833 22.8613C7.19553 22.921 7.06083 22.9521 6.92432 22.9523C6.7878 22.9525 6.65302 22.9219 6.53003 22.8626C6.40705 22.8033 6.29906 22.717 6.21416 22.6101C6.12925 22.5032 6.06963 22.3785 6.03976 22.2453L5.58301 20.2445H6.4935L6.90561 22.0492C6.90613 22.0522 6.9074 22.0549 6.9093 22.0573C6.9112 22.0596 6.91368 22.0614 6.91647 22.0625C6.91915 22.064 6.92216 22.0647 6.92522 22.0647C6.92828 22.0647 6.9313 22.064 6.93398 22.0625L8.60474 21.2575L8.99754 21.0687L9.81753 20.6735L10.2103 20.4847L11.3568 19.9332C11.4796 19.8738 11.6143 19.8429 11.7508 19.8429C11.8872 19.8429 12.0219 19.8738 12.1448 19.9332L13.3208 20.5021Z" fill="white"/>
<path d="M6.09511 18.5104H5.18461L4.94326 17.4629C4.94255 17.46 4.94121 17.4573 4.93933 17.455C4.93745 17.4527 4.93508 17.4509 4.9324 17.4496L3.93018 16.9669L3.53738 16.7781L2.72222 16.3823L2.32941 16.1934L0.515049 15.3209C0.39188 15.2621 0.283609 15.1762 0.198341 15.0696C0.113072 14.963 0.0530143 14.8385 0.0226618 14.7054C-0.00769071 14.5724 -0.00755158 14.4342 0.0230688 14.3011C0.0536891 14.1681 0.113998 14.0438 0.19948 13.9374L1.47201 12.3396L2.0404 13.0504L0.893972 14.4882C0.892008 14.4905 0.890648 14.4933 0.890016 14.4962C0.889383 14.4992 0.889499 14.5023 0.890351 14.5051C0.890923 14.5081 0.892214 14.5108 0.89411 14.5131C0.896005 14.5155 0.898445 14.5173 0.901212 14.5184L2.53034 15.3028L2.92314 15.4917L3.74434 15.8869L4.13714 16.0757L5.32279 16.6465C5.44579 16.7056 5.55386 16.7916 5.63891 16.8983C5.72397 17.005 5.7838 17.1295 5.81394 17.2626L6.09511 18.5104Z" fill="white"/>
<path d="M3.04022 5.08275C3.0383 5.08506 3.03698 5.08781 3.03635 5.09075C3.03571 5.09369 3.0358 5.09674 3.0366 5.09964L3.4294 6.82048L3.52655 7.24284L3.72928 8.13102L3.82643 8.55339L4.12812 9.88083C4.15872 10.0138 4.15888 10.1519 4.12858 10.2849C4.09828 10.4179 4.0383 10.5424 3.95314 10.6489L3.15004 11.6554L2.58165 10.9446L3.25925 10.095C3.26104 10.0926 3.2623 10.0899 3.26292 10.087C3.26355 10.0841 3.26353 10.081 3.26287 10.0781L3.00523 8.94981L2.90808 8.52745L2.70534 7.63927L2.6082 7.2169L2.17015 5.29694C2.13929 5.16394 2.13892 5.02567 2.16908 4.8925C2.19923 4.75934 2.25912 4.63471 2.34427 4.52798C2.42942 4.42124 2.53761 4.33515 2.66074 4.27616C2.78388 4.21717 2.91877 4.18679 3.05531 4.18732H5.05069L4.84916 5.0749H3.05591C3.05284 5.07477 3.0498 5.07542 3.04705 5.07679C3.04431 5.07816 3.04196 5.08022 3.04022 5.08275Z" fill="white"/>
<path d="M13.6761 1.86858L12.8561 2.2644L11.7652 0.896538C11.7634 0.89412 11.761 0.89219 11.7582 0.890926C11.7555 0.889661 11.7525 0.889102 11.7495 0.889298C11.7465 0.889044 11.7434 0.889578 11.7407 0.890847C11.7379 0.892116 11.7355 0.894077 11.7338 0.896538L10.6411 2.26863L10.3695 2.60954L9.80175 3.32153L9.53023 3.66183L8.67404 4.73404C8.58919 4.84085 8.4813 4.9271 8.35842 4.98635C8.23555 5.04559 8.10087 5.07629 7.96446 5.07616H6.63159L6.83252 4.18858H7.96386C7.9669 4.18856 7.9699 4.18784 7.97262 4.18648C7.97534 4.18512 7.97771 4.18316 7.97955 4.18074L8.71024 3.26782L8.98176 2.92752L9.55015 2.21553L9.82167 1.87522L11.0405 0.343238C11.1252 0.236221 11.2331 0.149756 11.356 0.0903158C11.4788 0.0308757 11.6136 0 11.7501 0C11.8866 0 12.0213 0.0308757 12.1442 0.0903158C12.2671 0.149756 12.3749 0.236221 12.4597 0.343238L13.6761 1.86858Z" fill="white"/>
</svg>
